<?xml version="1.0" encoding="utf-8" standalone="no"?>
<!DOCTYPE svg PUBLIC "-//W3C//DTD SVG 1.1//EN"
  "http://www.w3.org/Graphics/SVG/1.1/DTD/svg11.dtd">
<svg xmlns:xlink="http://www.w3.org/1999/xlink" width="460.8pt" height="345.6pt" viewBox="0 0 460.8 345.6" xmlns="http://www.w3.org/2000/svg" version="1.1">
 <metadata>
  <rdf:RDF xmlns:dc="http://purl.org/dc/elements/1.1/" xmlns:cc="http://creativecommons.org/ns#" xmlns:rdf="http://www.w3.org/1999/02/22-rdf-syntax-ns#">
   <cc:Work>
    <dc:type rdf:resource="http://purl.org/dc/dcmitype/StillImage"/>
    <dc:date>2023-12-11T09:07:52.448300</dc:date>
    <dc:format>image/svg+xml</dc:format>
    <dc:creator>
     <cc:Agent>
      <dc:title>Matplotlib v3.8.0, https://matplotlib.org/</dc:title>
     </cc:Agent>
    </dc:creator>
   </cc:Work>
  </rdf:RDF>
 </metadata>
 <defs>
  <style type="text/css">*{stroke-linejoin: round; stroke-linecap: butt}</style>
 </defs>
 <g id="figure_1">
  <g id="patch_1">
   <path d="M 0 345.6 
L 460.8 345.6 
L 460.8 0 
L 0 0 
z
" style="fill: #ffffff"/>
  </g>
  <g id="axes_1">
   <g id="patch_2">
    <path d="M 57.6 307.584 
L 414.72 307.584 
L 414.72 41.472 
L 57.6 41.472 
z
" style="fill: #ffffff"/>
   </g>
   <g id="PolyCollection_1">
    <path d="M 73.832727 153.352421 
L 73.832727 307.584 
L 77.112066 307.584 
L 80.391405 307.584 
L 83.670744 307.584 
L 86.950083 307.584 
L 90.229421 307.584 
L 93.50876 307.584 
L 96.788099 307.584 
L 100.067438 307.584 
L 103.346777 307.584 
L 106.626116 307.584 
L 109.905455 307.584 
L 113.184793 307.584 
L 116.464132 307.584 
L 119.743471 307.584 
L 123.02281 307.584 
L 126.302149 307.584 
L 129.581488 307.584 
L 132.860826 307.584 
L 136.140165 307.584 
L 139.419504 307.584 
L 142.698843 307.584 
L 145.978182 307.584 
L 149.257521 307.584 
L 152.53686 307.584 
L 155.816198 307.584 
L 159.095537 307.584 
L 162.374876 307.584 
L 165.654215 307.584 
L 168.933554 307.584 
L 172.212893 307.584 
L 175.492231 307.584 
L 178.77157 307.584 
L 182.050909 307.584 
L 185.330248 307.584 
L 188.609587 307.584 
L 191.888926 307.584 
L 195.168264 307.584 
L 198.447603 307.584 
L 201.726942 307.584 
L 205.006281 307.584 
L 208.28562 307.584 
L 211.564959 307.584 
L 214.844298 307.584 
L 218.123636 307.584 
L 221.402975 307.584 
L 224.682314 307.584 
L 227.961653 307.584 
L 231.240992 307.584 
L 234.520331 307.584 
L 237.799669 307.584 
L 241.079008 307.584 
L 244.358347 307.584 
L 247.637686 307.584 
L 250.917025 307.584 
L 254.196364 307.584 
L 257.475702 307.584 
L 260.755041 307.584 
L 264.03438 307.584 
L 267.313719 307.584 
L 270.593058 307.584 
L 273.872397 307.584 
L 277.151736 307.584 
L 280.431074 307.584 
L 283.710413 307.584 
L 286.989752 307.584 
L 290.269091 307.584 
L 293.54843 307.584 
L 296.827769 307.584 
L 300.107107 307.584 
L 303.386446 307.584 
L 306.665785 307.584 
L 309.945124 307.584 
L 313.224463 307.584 
L 316.503802 307.584 
L 319.78314 307.584 
L 323.062479 307.584 
L 326.341818 307.584 
L 329.621157 307.584 
L 332.900496 307.584 
L 336.179835 307.584 
L 339.459174 307.584 
L 342.738512 307.584 
L 346.017851 307.584 
L 349.29719 307.584 
L 352.576529 307.584 
L 355.855868 307.584 
L 359.135207 307.584 
L 362.414545 307.584 
L 365.693884 307.584 
L 368.973223 307.584 
L 372.252562 307.584 
L 375.531901 307.584 
L 378.81124 307.584 
L 382.090579 307.584 
L 385.369917 307.584 
L 388.649256 307.584 
L 391.928595 307.584 
L 395.207934 307.584 
L 398.487273 307.584 
L 398.487273 307.584 
L 398.487273 307.584 
L 395.207934 307.584 
L 391.928595 307.584 
L 388.649256 307.584 
L 385.369917 307.584 
L 382.090579 307.584 
L 378.81124 307.584 
L 375.531901 307.584 
L 372.252562 307.584 
L 368.973223 307.584 
L 365.693884 307.584 
L 362.414545 307.584 
L 359.135207 307.584 
L 355.855868 307.584 
L 352.576529 307.584 
L 349.29719 307.584 
L 346.017851 307.584 
L 342.738512 307.584 
L 339.459174 307.584 
L 336.179835 307.584 
L 332.900496 307.584 
L 329.621157 307.584 
L 326.341818 307.584 
L 323.062479 307.584 
L 319.78314 307.584 
L 316.503802 307.584 
L 313.224463 307.584 
L 309.945124 307.584 
L 306.665785 307.584 
L 303.386446 307.584 
L 300.107107 307.584 
L 296.827769 307.584 
L 293.54843 307.584 
L 290.269091 307.584 
L 286.989752 307.584 
L 283.710413 307.584 
L 280.431074 307.584 
L 277.151736 307.584 
L 273.872397 307.584 
L 270.593058 307.584 
L 267.313719 307.584 
L 264.03438 307.584 
L 260.755041 307.584 
L 257.475702 307.584 
L 254.196364 307.584 
L 250.917025 307.584 
L 247.637686 307.584 
L 244.358347 283.407158 
L 241.079008 285.074526 
L 237.799669 281.739789 
L 234.520331 283.407158 
L 231.240992 286.741895 
L 227.961653 280.072421 
L 224.682314 282.573474 
L 221.402975 286.741895 
L 218.123636 303.415579 
L 214.844298 288.409263 
L 211.564959 293.411368 
L 208.28562 300.080842 
L 205.006281 284.240842 
L 201.726942 290.910316 
L 198.447603 295.078737 
L 195.168264 304.249263 
L 191.888926 295.912421 
L 188.609587 305.082947 
L 185.330248 280.072421 
L 182.050909 287.575579 
L 178.77157 232.552421 
L 175.492231 288.409263 
L 172.212893 293.411368 
L 168.933554 290.076632 
L 165.654215 287.575579 
L 162.374876 285.908211 
L 159.095537 287.575579 
L 155.816198 279.238737 
L 152.53686 280.072421 
L 149.257521 285.908211 
L 145.978182 286.741895 
L 142.698843 287.575579 
L 139.419504 290.076632 
L 136.140165 294.245053 
L 132.860826 285.908211 
L 129.581488 289.242947 
L 126.302149 295.912421 
L 123.02281 284.240842 
L 119.743471 280.072421 
L 116.464132 296.746105 
L 113.184793 291.744 
L 109.905455 300.080842 
L 106.626116 285.908211 
L 103.346777 289.242947 
L 100.067438 302.581895 
L 96.788099 285.074526 
L 93.50876 286.741895 
L 90.229421 296.746105 
L 86.950083 277.571368 
L 83.670744 245.057684 
L 80.391405 306.750316 
L 77.112066 286.741895 
L 73.832727 153.352421 
z
" clip-path="url(#p3e224d756e)" style="fill: #1f77b4"/>
   </g>
   <g id="PolyCollection_2">
    <path d="M 73.832727 115.836632 
L 73.832727 153.352421 
L 77.112066 286.741895 
L 80.391405 306.750316 
L 83.670744 245.057684 
L 86.950083 277.571368 
L 90.229421 296.746105 
L 93.50876 286.741895 
L 96.788099 285.074526 
L 100.067438 302.581895 
L 103.346777 289.242947 
L 106.626116 285.908211 
L 109.905455 300.080842 
L 113.184793 291.744 
L 116.464132 296.746105 
L 119.743471 280.072421 
L 123.02281 284.240842 
L 126.302149 295.912421 
L 129.581488 289.242947 
L 132.860826 285.908211 
L 136.140165 294.245053 
L 139.419504 290.076632 
L 142.698843 287.575579 
L 145.978182 286.741895 
L 149.257521 285.908211 
L 152.53686 280.072421 
L 155.816198 279.238737 
L 159.095537 287.575579 
L 162.374876 285.908211 
L 165.654215 287.575579 
L 168.933554 290.076632 
L 172.212893 293.411368 
L 175.492231 288.409263 
L 178.77157 232.552421 
L 182.050909 287.575579 
L 185.330248 280.072421 
L 188.609587 305.082947 
L 191.888926 295.912421 
L 195.168264 304.249263 
L 198.447603 295.078737 
L 201.726942 290.910316 
L 205.006281 284.240842 
L 208.28562 300.080842 
L 211.564959 293.411368 
L 214.844298 288.409263 
L 218.123636 303.415579 
L 221.402975 286.741895 
L 224.682314 282.573474 
L 227.961653 280.072421 
L 231.240992 286.741895 
L 234.520331 283.407158 
L 237.799669 281.739789 
L 241.079008 285.074526 
L 244.358347 283.407158 
L 247.637686 307.584 
L 250.917025 307.584 
L 254.196364 307.584 
L 257.475702 307.584 
L 260.755041 307.584 
L 264.03438 307.584 
L 267.313719 307.584 
L 270.593058 307.584 
L 273.872397 307.584 
L 277.151736 307.584 
L 280.431074 307.584 
L 283.710413 307.584 
L 286.989752 307.584 
L 290.269091 307.584 
L 293.54843 307.584 
L 296.827769 307.584 
L 300.107107 307.584 
L 303.386446 307.584 
L 306.665785 307.584 
L 309.945124 307.584 
L 313.224463 307.584 
L 316.503802 307.584 
L 319.78314 307.584 
L 323.062479 307.584 
L 326.341818 307.584 
L 329.621157 307.584 
L 332.900496 307.584 
L 336.179835 307.584 
L 339.459174 307.584 
L 342.738512 307.584 
L 346.017851 307.584 
L 349.29719 307.584 
L 352.576529 307.584 
L 355.855868 307.584 
L 359.135207 307.584 
L 362.414545 307.584 
L 365.693884 307.584 
L 368.973223 307.584 
L 372.252562 307.584 
L 375.531901 307.584 
L 378.81124 307.584 
L 382.090579 307.584 
L 385.369917 307.584 
L 388.649256 307.584 
L 391.928595 307.584 
L 395.207934 307.584 
L 398.487273 307.584 
L 398.487273 183.365053 
L 398.487273 183.365053 
L 395.207934 184.198737 
L 391.928595 182.531368 
L 388.649256 183.365053 
L 385.369917 184.198737 
L 382.090579 183.365053 
L 378.81124 184.198737 
L 375.531901 183.365053 
L 372.252562 181.697684 
L 368.973223 182.531368 
L 365.693884 183.365053 
L 362.414545 184.198737 
L 359.135207 183.365053 
L 355.855868 181.697684 
L 352.576529 182.531368 
L 349.29719 181.697684 
L 346.017851 180.030316 
L 342.738512 180.864 
L 339.459174 181.697684 
L 336.179835 182.531368 
L 332.900496 185.032421 
L 329.621157 226.716632 
L 326.341818 225.882947 
L 323.062479 225.049263 
L 319.78314 224.215579 
L 316.503802 225.049263 
L 313.224463 224.215579 
L 309.945124 223.381895 
L 306.665785 224.215579 
L 303.386446 225.049263 
L 300.107107 224.215579 
L 296.827769 225.049263 
L 293.54843 224.215579 
L 290.269091 225.049263 
L 286.989752 224.215579 
L 283.710413 223.381895 
L 280.431074 221.714526 
L 277.151736 219.213474 
L 273.872397 215.878737 
L 270.593058 219.213474 
L 267.313719 239.221895 
L 264.03438 240.055579 
L 260.755041 238.388211 
L 257.475702 237.554526 
L 254.196364 248.392421 
L 250.917025 263.398737 
L 247.637686 262.565053 
L 244.358347 245.057684 
L 241.079008 243.390316 
L 237.799669 248.392421 
L 234.520331 246.725053 
L 231.240992 255.061895 
L 227.961653 242.556632 
L 224.682314 247.558737 
L 221.402975 253.394526 
L 218.123636 269.234526 
L 214.844298 255.061895 
L 211.564959 260.897684 
L 208.28562 270.901895 
L 205.006281 253.394526 
L 201.726942 262.565053 
L 198.447603 265.899789 
L 195.168264 275.070316 
L 191.888926 263.398737 
L 188.609587 272.569263 
L 185.330248 250.893474 
L 182.050909 253.394526 
L 178.77157 212.544 
L 175.492231 255.895579 
L 172.212893 261.731368 
L 168.933554 260.064 
L 165.654215 256.729263 
L 162.374876 255.061895 
L 159.095537 255.895579 
L 155.816198 247.558737 
L 152.53686 253.394526 
L 149.257521 265.066105 
L 145.978182 267.567158 
L 142.698843 264.232421 
L 139.419504 268.400842 
L 136.140165 275.904 
L 132.860826 275.070316 
L 129.581488 264.232421 
L 126.302149 284.240842 
L 123.02281 236.720842 
L 119.743471 258.396632 
L 116.464132 276.737684 
L 113.184793 264.232421 
L 109.905455 263.398737 
L 106.626116 254.228211 
L 103.346777 260.064 
L 100.067438 277.571368 
L 96.788099 256.729263 
L 93.50876 265.899789 
L 90.229421 282.573474 
L 86.950083 276.737684 
L 83.670744 215.878737 
L 80.391405 281.739789 
L 77.112066 280.072421 
L 73.832727 115.836632 
z
" clip-path="url(#p3e224d756e)" style="fill: #ff7f0e"/>
   </g>
   <g id="PolyCollection_3">
    <path d="M 73.832727 75.819789 
L 73.832727 115.836632 
L 77.112066 280.072421 
L 80.391405 281.739789 
L 83.670744 215.878737 
L 86.950083 276.737684 
L 90.229421 282.573474 
L 93.50876 265.899789 
L 96.788099 256.729263 
L 100.067438 277.571368 
L 103.346777 260.064 
L 106.626116 254.228211 
L 109.905455 263.398737 
L 113.184793 264.232421 
L 116.464132 276.737684 
L 119.743471 258.396632 
L 123.02281 236.720842 
L 126.302149 284.240842 
L 129.581488 264.232421 
L 132.860826 275.070316 
L 136.140165 275.904 
L 139.419504 268.400842 
L 142.698843 264.232421 
L 145.978182 267.567158 
L 149.257521 265.066105 
L 152.53686 253.394526 
L 155.816198 247.558737 
L 159.095537 255.895579 
L 162.374876 255.061895 
L 165.654215 256.729263 
L 168.933554 260.064 
L 172.212893 261.731368 
L 175.492231 255.895579 
L 178.77157 212.544 
L 182.050909 253.394526 
L 185.330248 250.893474 
L 188.609587 272.569263 
L 191.888926 263.398737 
L 195.168264 275.070316 
L 198.447603 265.899789 
L 201.726942 262.565053 
L 205.006281 253.394526 
L 208.28562 270.901895 
L 211.564959 260.897684 
L 214.844298 255.061895 
L 218.123636 269.234526 
L 221.402975 253.394526 
L 224.682314 247.558737 
L 227.961653 242.556632 
L 231.240992 255.061895 
L 234.520331 246.725053 
L 237.799669 248.392421 
L 241.079008 243.390316 
L 244.358347 245.057684 
L 247.637686 262.565053 
L 250.917025 263.398737 
L 254.196364 248.392421 
L 257.475702 237.554526 
L 260.755041 238.388211 
L 264.03438 240.055579 
L 267.313719 239.221895 
L 270.593058 219.213474 
L 273.872397 215.878737 
L 277.151736 219.213474 
L 280.431074 221.714526 
L 283.710413 223.381895 
L 286.989752 224.215579 
L 290.269091 225.049263 
L 293.54843 224.215579 
L 296.827769 225.049263 
L 300.107107 224.215579 
L 303.386446 225.049263 
L 306.665785 224.215579 
L 309.945124 223.381895 
L 313.224463 224.215579 
L 316.503802 225.049263 
L 319.78314 224.215579 
L 323.062479 225.049263 
L 326.341818 225.882947 
L 329.621157 226.716632 
L 332.900496 185.032421 
L 336.179835 182.531368 
L 339.459174 181.697684 
L 342.738512 180.864 
L 346.017851 180.030316 
L 349.29719 181.697684 
L 352.576529 182.531368 
L 355.855868 181.697684 
L 359.135207 183.365053 
L 362.414545 184.198737 
L 365.693884 183.365053 
L 368.973223 182.531368 
L 372.252562 181.697684 
L 375.531901 183.365053 
L 378.81124 184.198737 
L 382.090579 183.365053 
L 385.369917 184.198737 
L 388.649256 183.365053 
L 391.928595 182.531368 
L 395.207934 184.198737 
L 398.487273 183.365053 
L 398.487273 183.365053 
L 398.487273 183.365053 
L 395.207934 184.198737 
L 391.928595 182.531368 
L 388.649256 183.365053 
L 385.369917 184.198737 
L 382.090579 183.365053 
L 378.81124 184.198737 
L 375.531901 183.365053 
L 372.252562 181.697684 
L 368.973223 182.531368 
L 365.693884 183.365053 
L 362.414545 184.198737 
L 359.135207 183.365053 
L 355.855868 181.697684 
L 352.576529 182.531368 
L 349.29719 181.697684 
L 346.017851 180.030316 
L 342.738512 180.864 
L 339.459174 181.697684 
L 336.179835 182.531368 
L 332.900496 185.032421 
L 329.621157 226.716632 
L 326.341818 225.882947 
L 323.062479 225.049263 
L 319.78314 224.215579 
L 316.503802 225.049263 
L 313.224463 224.215579 
L 309.945124 223.381895 
L 306.665785 224.215579 
L 303.386446 225.049263 
L 300.107107 224.215579 
L 296.827769 225.049263 
L 293.54843 224.215579 
L 290.269091 225.049263 
L 286.989752 224.215579 
L 283.710413 223.381895 
L 280.431074 221.714526 
L 277.151736 219.213474 
L 273.872397 215.878737 
L 270.593058 219.213474 
L 267.313719 173.360842 
L 264.03438 173.360842 
L 260.755041 173.360842 
L 257.475702 167.525053 
L 254.196364 195.870316 
L 250.917025 218.379789 
L 247.637686 219.213474 
L 244.358347 206.708211 
L 241.079008 205.040842 
L 237.799669 211.710316 
L 234.520331 208.375579 
L 231.240992 219.213474 
L 227.961653 210.042947 
L 224.682314 214.211368 
L 221.402975 219.213474 
L 218.123636 235.053474 
L 214.844298 219.213474 
L 211.564959 225.049263 
L 208.28562 235.887158 
L 205.006281 216.712421 
L 201.726942 226.716632 
L 198.447603 230.051368 
L 195.168264 237.554526 
L 191.888926 228.384 
L 188.609587 237.554526 
L 185.330248 218.379789 
L 182.050909 222.548211 
L 178.77157 184.198737 
L 175.492231 226.716632 
L 172.212893 231.718737 
L 168.933554 230.051368 
L 165.654215 227.550316 
L 162.374876 225.882947 
L 159.095537 228.384 
L 155.816198 224.215579 
L 152.53686 235.053474 
L 149.257521 216.712421 
L 145.978182 235.887158 
L 142.698843 228.384 
L 139.419504 239.221895 
L 136.140165 246.725053 
L 132.860826 245.891368 
L 129.581488 235.887158 
L 126.302149 255.061895 
L 123.02281 208.375579 
L 119.743471 230.051368 
L 116.464132 249.226105 
L 113.184793 237.554526 
L 109.905455 235.887158 
L 106.626116 229.217684 
L 103.346777 238.388211 
L 100.067438 261.731368 
L 96.788099 235.053474 
L 93.50876 240.889263 
L 90.229421 253.394526 
L 86.950083 244.224 
L 83.670744 182.531368 
L 80.391405 266.733474 
L 77.112066 133.344 
L 73.832727 75.819789 
z
" clip-path="url(#p3e224d756e)" style="fill: #2ca02c"/>
   </g>
   <g id="PolyCollection_4">
    <path d="M 73.832727 58.312421 
L 73.832727 75.819789 
L 77.112066 133.344 
L 80.391405 266.733474 
L 83.670744 182.531368 
L 86.950083 244.224 
L 90.229421 253.394526 
L 93.50876 240.889263 
L 96.788099 235.053474 
L 100.067438 261.731368 
L 103.346777 238.388211 
L 106.626116 229.217684 
L 109.905455 235.887158 
L 113.184793 237.554526 
L 116.464132 249.226105 
L 119.743471 230.051368 
L 123.02281 208.375579 
L 126.302149 255.061895 
L 129.581488 235.887158 
L 132.860826 245.891368 
L 136.140165 246.725053 
L 139.419504 239.221895 
L 142.698843 228.384 
L 145.978182 235.887158 
L 149.257521 216.712421 
L 152.53686 235.053474 
L 155.816198 224.215579 
L 159.095537 228.384 
L 162.374876 225.882947 
L 165.654215 227.550316 
L 168.933554 230.051368 
L 172.212893 231.718737 
L 175.492231 226.716632 
L 178.77157 184.198737 
L 182.050909 222.548211 
L 185.330248 218.379789 
L 188.609587 237.554526 
L 191.888926 228.384 
L 195.168264 237.554526 
L 198.447603 230.051368 
L 201.726942 226.716632 
L 205.006281 216.712421 
L 208.28562 235.887158 
L 211.564959 225.049263 
L 214.844298 219.213474 
L 218.123636 235.053474 
L 221.402975 219.213474 
L 224.682314 214.211368 
L 227.961653 210.042947 
L 231.240992 219.213474 
L 234.520331 208.375579 
L 237.799669 211.710316 
L 241.079008 205.040842 
L 244.358347 206.708211 
L 247.637686 219.213474 
L 250.917025 218.379789 
L 254.196364 195.870316 
L 257.475702 167.525053 
L 260.755041 173.360842 
L 264.03438 173.360842 
L 267.313719 173.360842 
L 270.593058 219.213474 
L 273.872397 215.878737 
L 277.151736 219.213474 
L 280.431074 221.714526 
L 283.710413 223.381895 
L 286.989752 224.215579 
L 290.269091 225.049263 
L 293.54843 224.215579 
L 296.827769 225.049263 
L 300.107107 224.215579 
L 303.386446 225.049263 
L 306.665785 224.215579 
L 309.945124 223.381895 
L 313.224463 224.215579 
L 316.503802 225.049263 
L 319.78314 224.215579 
L 323.062479 225.049263 
L 326.341818 225.882947 
L 329.621157 226.716632 
L 332.900496 185.032421 
L 336.179835 182.531368 
L 339.459174 181.697684 
L 342.738512 180.864 
L 346.017851 180.030316 
L 349.29719 181.697684 
L 352.576529 182.531368 
L 355.855868 181.697684 
L 359.135207 183.365053 
L 362.414545 184.198737 
L 365.693884 183.365053 
L 368.973223 182.531368 
L 372.252562 181.697684 
L 375.531901 183.365053 
L 378.81124 184.198737 
L 382.090579 183.365053 
L 385.369917 184.198737 
L 388.649256 183.365053 
L 391.928595 182.531368 
L 395.207934 184.198737 
L 398.487273 183.365053 
L 398.487273 183.365053 
L 398.487273 183.365053 
L 395.207934 184.198737 
L 391.928595 182.531368 
L 388.649256 183.365053 
L 385.369917 184.198737 
L 382.090579 183.365053 
L 378.81124 184.198737 
L 375.531901 183.365053 
L 372.252562 181.697684 
L 368.973223 182.531368 
L 365.693884 183.365053 
L 362.414545 184.198737 
L 359.135207 183.365053 
L 355.855868 181.697684 
L 352.576529 182.531368 
L 349.29719 181.697684 
L 346.017851 180.030316 
L 342.738512 180.864 
L 339.459174 181.697684 
L 336.179835 182.531368 
L 332.900496 185.032421 
L 329.621157 226.716632 
L 326.341818 225.882947 
L 323.062479 225.049263 
L 319.78314 224.215579 
L 316.503802 225.049263 
L 313.224463 224.215579 
L 309.945124 223.381895 
L 306.665785 224.215579 
L 303.386446 225.049263 
L 300.107107 224.215579 
L 296.827769 225.049263 
L 293.54843 224.215579 
L 290.269091 225.049263 
L 286.989752 224.215579 
L 283.710413 223.381895 
L 280.431074 221.714526 
L 277.151736 219.213474 
L 273.872397 215.878737 
L 270.593058 219.213474 
L 267.313719 173.360842 
L 264.03438 173.360842 
L 260.755041 173.360842 
L 257.475702 167.525053 
L 254.196364 195.870316 
L 250.917025 218.379789 
L 247.637686 219.213474 
L 244.358347 206.708211 
L 241.079008 205.040842 
L 237.799669 183.365053 
L 234.520331 184.198737 
L 231.240992 191.701895 
L 227.961653 183.365053 
L 224.682314 186.699789 
L 221.402975 185.866105 
L 218.123636 203.373474 
L 214.844298 190.868211 
L 211.564959 189.200842 
L 208.28562 212.544 
L 205.006281 188.367158 
L 201.726942 195.036632 
L 198.447603 194.202947 
L 195.168264 205.040842 
L 191.888926 197.537684 
L 188.609587 205.040842 
L 185.330248 192.535579 
L 182.050909 183.365053 
L 178.77157 175.861895 
L 175.492231 194.202947 
L 172.212893 210.876632 
L 168.933554 213.377684 
L 165.654215 208.375579 
L 162.374876 209.209263 
L 159.095537 209.209263 
L 155.816198 203.373474 
L 152.53686 214.211368 
L 149.257521 210.876632 
L 145.978182 205.040842 
L 142.698843 211.710316 
L 139.419504 216.712421 
L 136.140165 228.384 
L 132.860826 226.716632 
L 129.581488 220.880842 
L 126.302149 237.554526 
L 123.02281 191.701895 
L 119.743471 207.541895 
L 116.464132 207.541895 
L 113.184793 207.541895 
L 109.905455 214.211368 
L 106.626116 208.375579 
L 103.346777 219.213474 
L 100.067438 246.725053 
L 96.788099 213.377684 
L 93.50876 219.213474 
L 90.229421 236.720842 
L 86.950083 225.049263 
L 83.670744 128.341895 
L 80.391405 98.329263 
L 77.112066 90.826105 
L 73.832727 58.312421 
z
" clip-path="url(#p3e224d756e)" style="fill: #d62728"/>
   </g>
   <g id="PolyCollection_5">
    <path d="M 73.832727 57.478737 
L 73.832727 58.312421 
L 77.112066 90.826105 
L 80.391405 98.329263 
L 83.670744 128.341895 
L 86.950083 225.049263 
L 90.229421 236.720842 
L 93.50876 219.213474 
L 96.788099 213.377684 
L 100.067438 246.725053 
L 103.346777 219.213474 
L 106.626116 208.375579 
L 109.905455 214.211368 
L 113.184793 207.541895 
L 116.464132 207.541895 
L 119.743471 207.541895 
L 123.02281 191.701895 
L 126.302149 237.554526 
L 129.581488 220.880842 
L 132.860826 226.716632 
L 136.140165 228.384 
L 139.419504 216.712421 
L 142.698843 211.710316 
L 145.978182 205.040842 
L 149.257521 210.876632 
L 152.53686 214.211368 
L 155.816198 203.373474 
L 159.095537 209.209263 
L 162.374876 209.209263 
L 165.654215 208.375579 
L 168.933554 213.377684 
L 172.212893 210.876632 
L 175.492231 194.202947 
L 178.77157 175.861895 
L 182.050909 183.365053 
L 185.330248 192.535579 
L 188.609587 205.040842 
L 191.888926 197.537684 
L 195.168264 205.040842 
L 198.447603 194.202947 
L 201.726942 195.036632 
L 205.006281 188.367158 
L 208.28562 212.544 
L 211.564959 189.200842 
L 214.844298 190.868211 
L 218.123636 203.373474 
L 221.402975 185.866105 
L 224.682314 186.699789 
L 227.961653 183.365053 
L 231.240992 191.701895 
L 234.520331 184.198737 
L 237.799669 183.365053 
L 241.079008 205.040842 
L 244.358347 206.708211 
L 247.637686 219.213474 
L 250.917025 218.379789 
L 254.196364 195.870316 
L 257.475702 167.525053 
L 260.755041 173.360842 
L 264.03438 173.360842 
L 267.313719 173.360842 
L 270.593058 219.213474 
L 273.872397 215.878737 
L 277.151736 219.213474 
L 280.431074 221.714526 
L 283.710413 223.381895 
L 286.989752 224.215579 
L 290.269091 225.049263 
L 293.54843 224.215579 
L 296.827769 225.049263 
L 300.107107 224.215579 
L 303.386446 225.049263 
L 306.665785 224.215579 
L 309.945124 223.381895 
L 313.224463 224.215579 
L 316.503802 225.049263 
L 319.78314 224.215579 
L 323.062479 225.049263 
L 326.341818 225.882947 
L 329.621157 226.716632 
L 332.900496 185.032421 
L 336.179835 182.531368 
L 339.459174 181.697684 
L 342.738512 180.864 
L 346.017851 180.030316 
L 349.29719 181.697684 
L 352.576529 182.531368 
L 355.855868 181.697684 
L 359.135207 183.365053 
L 362.414545 184.198737 
L 365.693884 183.365053 
L 368.973223 182.531368 
L 372.252562 181.697684 
L 375.531901 183.365053 
L 378.81124 184.198737 
L 382.090579 183.365053 
L 385.369917 184.198737 
L 388.649256 183.365053 
L 391.928595 182.531368 
L 395.207934 184.198737 
L 398.487273 183.365053 
L 398.487273 183.365053 
L 398.487273 183.365053 
L 395.207934 184.198737 
L 391.928595 182.531368 
L 388.649256 183.365053 
L 385.369917 184.198737 
L 382.090579 183.365053 
L 378.81124 184.198737 
L 375.531901 183.365053 
L 372.252562 181.697684 
L 368.973223 182.531368 
L 365.693884 183.365053 
L 362.414545 184.198737 
L 359.135207 183.365053 
L 355.855868 181.697684 
L 352.576529 182.531368 
L 349.29719 181.697684 
L 346.017851 180.030316 
L 342.738512 180.864 
L 339.459174 181.697684 
L 336.179835 182.531368 
L 332.900496 185.032421 
L 329.621157 226.716632 
L 326.341818 225.882947 
L 323.062479 225.049263 
L 319.78314 224.215579 
L 316.503802 225.049263 
L 313.224463 224.215579 
L 309.945124 223.381895 
L 306.665785 224.215579 
L 303.386446 225.049263 
L 300.107107 224.215579 
L 296.827769 225.049263 
L 293.54843 224.215579 
L 290.269091 225.049263 
L 286.989752 224.215579 
L 283.710413 223.381895 
L 280.431074 221.714526 
L 277.151736 219.213474 
L 273.872397 215.878737 
L 270.593058 219.213474 
L 267.313719 173.360842 
L 264.03438 173.360842 
L 260.755041 173.360842 
L 257.475702 167.525053 
L 254.196364 195.870316 
L 250.917025 218.379789 
L 247.637686 219.213474 
L 244.358347 206.708211 
L 241.079008 205.040842 
L 237.799669 183.365053 
L 234.520331 184.198737 
L 231.240992 191.701895 
L 227.961653 183.365053 
L 224.682314 186.699789 
L 221.402975 185.866105 
L 218.123636 203.373474 
L 214.844298 190.868211 
L 211.564959 189.200842 
L 208.28562 212.544 
L 205.006281 188.367158 
L 201.726942 195.036632 
L 198.447603 194.202947 
L 195.168264 205.040842 
L 191.888926 197.537684 
L 188.609587 205.040842 
L 185.330248 192.535579 
L 182.050909 183.365053 
L 178.77157 175.861895 
L 175.492231 194.202947 
L 172.212893 210.876632 
L 168.933554 213.377684 
L 165.654215 208.375579 
L 162.374876 209.209263 
L 159.095537 209.209263 
L 155.816198 203.373474 
L 152.53686 214.211368 
L 149.257521 188.367158 
L 145.978182 183.365053 
L 142.698843 189.200842 
L 139.419504 195.036632 
L 136.140165 205.874526 
L 132.860826 203.373474 
L 129.581488 196.704 
L 126.302149 212.544 
L 123.02281 165.857684 
L 119.743471 180.864 
L 116.464132 180.030316 
L 113.184793 180.030316 
L 109.905455 186.699789 
L 106.626116 181.697684 
L 103.346777 191.701895 
L 100.067438 218.379789 
L 96.788099 184.198737 
L 93.50876 188.367158 
L 90.229421 203.373474 
L 86.950083 185.866105 
L 83.670744 80.821895 
L 80.391405 57.478737 
L 77.112066 57.478737 
L 73.832727 57.478737 
z
" clip-path="url(#p3e224d756e)" style="fill: #9467bd"/>
   </g>
   <g id="PolyCollection_6">
    <path d="M 73.832727 57.478737 
L 73.832727 57.478737 
L 77.112066 57.478737 
L 80.391405 57.478737 
L 83.670744 80.821895 
L 86.950083 185.866105 
L 90.229421 203.373474 
L 93.50876 188.367158 
L 96.788099 184.198737 
L 100.067438 218.379789 
L 103.346777 191.701895 
L 106.626116 181.697684 
L 109.905455 186.699789 
L 113.184793 180.030316 
L 116.464132 180.030316 
L 119.743471 180.864 
L 123.02281 165.857684 
L 126.302149 212.544 
L 129.581488 196.704 
L 132.860826 203.373474 
L 136.140165 205.874526 
L 139.419504 195.036632 
L 142.698843 189.200842 
L 145.978182 183.365053 
L 149.257521 188.367158 
L 152.53686 214.211368 
L 155.816198 203.373474 
L 159.095537 209.209263 
L 162.374876 209.209263 
L 165.654215 208.375579 
L 168.933554 213.377684 
L 172.212893 210.876632 
L 175.492231 194.202947 
L 178.77157 175.861895 
L 182.050909 183.365053 
L 185.330248 192.535579 
L 188.609587 205.040842 
L 191.888926 197.537684 
L 195.168264 205.040842 
L 198.447603 194.202947 
L 201.726942 195.036632 
L 205.006281 188.367158 
L 208.28562 212.544 
L 211.564959 189.200842 
L 214.844298 190.868211 
L 218.123636 203.373474 
L 221.402975 185.866105 
L 224.682314 186.699789 
L 227.961653 183.365053 
L 231.240992 191.701895 
L 234.520331 184.198737 
L 237.799669 183.365053 
L 241.079008 205.040842 
L 244.358347 206.708211 
L 247.637686 219.213474 
L 250.917025 218.379789 
L 254.196364 195.870316 
L 257.475702 167.525053 
L 260.755041 173.360842 
L 264.03438 173.360842 
L 267.313719 173.360842 
L 270.593058 219.213474 
L 273.872397 215.878737 
L 277.151736 219.213474 
L 280.431074 221.714526 
L 283.710413 223.381895 
L 286.989752 224.215579 
L 290.269091 225.049263 
L 293.54843 224.215579 
L 296.827769 225.049263 
L 300.107107 224.215579 
L 303.386446 225.049263 
L 306.665785 224.215579 
L 309.945124 223.381895 
L 313.224463 224.215579 
L 316.503802 225.049263 
L 319.78314 224.215579 
L 323.062479 225.049263 
L 326.341818 225.882947 
L 329.621157 226.716632 
L 332.900496 185.032421 
L 336.179835 182.531368 
L 339.459174 181.697684 
L 342.738512 180.864 
L 346.017851 180.030316 
L 349.29719 181.697684 
L 352.576529 182.531368 
L 355.855868 181.697684 
L 359.135207 183.365053 
L 362.414545 184.198737 
L 365.693884 183.365053 
L 368.973223 182.531368 
L 372.252562 181.697684 
L 375.531901 183.365053 
L 378.81124 184.198737 
L 382.090579 183.365053 
L 385.369917 184.198737 
L 388.649256 183.365053 
L 391.928595 182.531368 
L 395.207934 184.198737 
L 398.487273 183.365053 
L 398.487273 183.365053 
L 398.487273 183.365053 
L 395.207934 184.198737 
L 391.928595 182.531368 
L 388.649256 183.365053 
L 385.369917 184.198737 
L 382.090579 183.365053 
L 378.81124 184.198737 
L 375.531901 183.365053 
L 372.252562 181.697684 
L 368.973223 182.531368 
L 365.693884 183.365053 
L 362.414545 184.198737 
L 359.135207 183.365053 
L 355.855868 181.697684 
L 352.576529 182.531368 
L 349.29719 181.697684 
L 346.017851 180.030316 
L 342.738512 180.864 
L 339.459174 181.697684 
L 336.179835 182.531368 
L 332.900496 185.032421 
L 329.621157 226.716632 
L 326.341818 225.882947 
L 323.062479 225.049263 
L 319.78314 224.215579 
L 316.503802 225.049263 
L 313.224463 224.215579 
L 309.945124 223.381895 
L 306.665785 224.215579 
L 303.386446 225.049263 
L 300.107107 224.215579 
L 296.827769 225.049263 
L 293.54843 224.215579 
L 290.269091 225.049263 
L 286.989752 224.215579 
L 283.710413 223.381895 
L 280.431074 221.714526 
L 277.151736 219.213474 
L 273.872397 215.878737 
L 270.593058 169.192421 
L 267.313719 119.171368 
L 264.03438 116.670316 
L 260.755041 120.838737 
L 257.475702 121.672421 
L 254.196364 154.186105 
L 250.917025 180.864 
L 247.637686 178.362947 
L 244.358347 173.360842 
L 241.079008 169.192421 
L 237.799669 152.518737 
L 234.520331 160.021895 
L 231.240992 166.691368 
L 227.961653 149.184 
L 224.682314 149.184 
L 221.402975 150.851368 
L 218.123636 156.687158 
L 214.844298 155.853474 
L 211.564959 160.021895 
L 208.28562 193.369263 
L 205.006281 164.190316 
L 201.726942 159.188211 
L 198.447603 165.024 
L 195.168264 175.028211 
L 191.888926 163.356632 
L 188.609587 167.525053 
L 185.330248 155.853474 
L 182.050909 147.516632 
L 178.77157 158.354526 
L 175.492231 170.026105 
L 172.212893 181.697684 
L 168.933554 181.697684 
L 165.654215 180.030316 
L 162.374876 183.365053 
L 159.095537 188.367158 
L 155.816198 175.861895 
L 152.53686 175.861895 
L 149.257521 170.859789 
L 145.978182 163.356632 
L 142.698843 165.857684 
L 139.419504 167.525053 
L 136.140165 167.525053 
L 132.860826 168.358737 
L 129.581488 176.695579 
L 126.302149 188.367158 
L 123.02281 136.678737 
L 119.743471 149.184 
L 116.464132 149.184 
L 113.184793 150.017684 
L 109.905455 153.352421 
L 106.626116 146.682947 
L 103.346777 154.186105 
L 100.067438 169.192421 
L 96.788099 150.017684 
L 93.50876 160.021895 
L 90.229421 156.687158 
L 86.950083 93.327158 
L 83.670744 69.984 
L 80.391405 57.478737 
L 77.112066 57.478737 
L 73.832727 57.478737 
z
" clip-path="url(#p3e224d756e)" style="fill: #8c564b"/>
   </g>
   <g id="PolyCollection_7">
    <path d="M 73.832727 57.478737 
L 73.832727 57.478737 
L 77.112066 57.478737 
L 80.391405 57.478737 
L 83.670744 69.984 
L 86.950083 93.327158 
L 90.229421 156.687158 
L 93.50876 160.021895 
L 96.788099 150.017684 
L 100.067438 169.192421 
L 103.346777 154.186105 
L 106.626116 146.682947 
L 109.905455 153.352421 
L 113.184793 150.017684 
L 116.464132 149.184 
L 119.743471 149.184 
L 123.02281 136.678737 
L 126.302149 188.367158 
L 129.581488 176.695579 
L 132.860826 168.358737 
L 136.140165 167.525053 
L 139.419504 167.525053 
L 142.698843 165.857684 
L 145.978182 163.356632 
L 149.257521 170.859789 
L 152.53686 175.861895 
L 155.816198 175.861895 
L 159.095537 188.367158 
L 162.374876 183.365053 
L 165.654215 180.030316 
L 168.933554 181.697684 
L 172.212893 181.697684 
L 175.492231 170.026105 
L 178.77157 158.354526 
L 182.050909 147.516632 
L 185.330248 155.853474 
L 188.609587 167.525053 
L 191.888926 163.356632 
L 195.168264 175.028211 
L 198.447603 165.024 
L 201.726942 159.188211 
L 205.006281 164.190316 
L 208.28562 193.369263 
L 211.564959 160.021895 
L 214.844298 155.853474 
L 218.123636 156.687158 
L 221.402975 150.851368 
L 224.682314 149.184 
L 227.961653 149.184 
L 231.240992 166.691368 
L 234.520331 160.021895 
L 237.799669 152.518737 
L 241.079008 169.192421 
L 244.358347 173.360842 
L 247.637686 178.362947 
L 250.917025 180.864 
L 254.196364 154.186105 
L 257.475702 121.672421 
L 260.755041 120.838737 
L 264.03438 116.670316 
L 267.313719 119.171368 
L 270.593058 169.192421 
L 273.872397 215.878737 
L 277.151736 219.213474 
L 280.431074 221.714526 
L 283.710413 223.381895 
L 286.989752 224.215579 
L 290.269091 225.049263 
L 293.54843 224.215579 
L 296.827769 225.049263 
L 300.107107 224.215579 
L 303.386446 225.049263 
L 306.665785 224.215579 
L 309.945124 223.381895 
L 313.224463 224.215579 
L 316.503802 225.049263 
L 319.78314 224.215579 
L 323.062479 225.049263 
L 326.341818 225.882947 
L 329.621157 226.716632 
L 332.900496 185.032421 
L 336.179835 182.531368 
L 339.459174 181.697684 
L 342.738512 180.864 
L 346.017851 180.030316 
L 349.29719 181.697684 
L 352.576529 182.531368 
L 355.855868 181.697684 
L 359.135207 183.365053 
L 362.414545 184.198737 
L 365.693884 183.365053 
L 368.973223 182.531368 
L 372.252562 181.697684 
L 375.531901 183.365053 
L 378.81124 184.198737 
L 382.090579 183.365053 
L 385.369917 184.198737 
L 388.649256 183.365053 
L 391.928595 182.531368 
L 395.207934 184.198737 
L 398.487273 183.365053 
L 398.487273 183.365053 
L 398.487273 183.365053 
L 395.207934 184.198737 
L 391.928595 182.531368 
L 388.649256 183.365053 
L 385.369917 184.198737 
L 382.090579 183.365053 
L 378.81124 184.198737 
L 375.531901 183.365053 
L 372.252562 181.697684 
L 368.973223 182.531368 
L 365.693884 183.365053 
L 362.414545 184.198737 
L 359.135207 183.365053 
L 355.855868 181.697684 
L 352.576529 182.531368 
L 349.29719 181.697684 
L 346.017851 180.030316 
L 342.738512 180.864 
L 339.459174 181.697684 
L 336.179835 182.531368 
L 332.900496 185.032421 
L 329.621157 226.716632 
L 326.341818 225.882947 
L 323.062479 225.049263 
L 319.78314 224.215579 
L 316.503802 225.049263 
L 313.224463 224.215579 
L 309.945124 223.381895 
L 306.665785 224.215579 
L 303.386446 225.049263 
L 300.107107 224.215579 
L 296.827769 225.049263 
L 293.54843 224.215579 
L 290.269091 225.049263 
L 286.989752 224.215579 
L 283.710413 223.381895 
L 280.431074 221.714526 
L 277.151736 219.213474 
L 273.872397 215.878737 
L 270.593058 169.192421 
L 267.313719 119.171368 
L 264.03438 116.670316 
L 260.755041 120.838737 
L 257.475702 121.672421 
L 254.196364 108.333474 
L 250.917025 145.849263 
L 247.637686 142.514526 
L 244.358347 139.179789 
L 241.079008 130.009263 
L 237.799669 119.171368 
L 234.520331 128.341895 
L 231.240992 134.177684 
L 227.961653 115.002947 
L 224.682314 112.501895 
L 221.402975 113.335579 
L 218.123636 113.335579 
L 214.844298 119.171368 
L 211.564959 127.508211 
L 208.28562 132.510316 
L 205.006281 99.996632 
L 201.726942 103.331368 
L 198.447603 116.670316 
L 195.168264 130.842947 
L 191.888926 123.339789 
L 188.609587 124.173474 
L 185.330248 116.670316 
L 182.050909 110.000842 
L 178.77157 127.508211 
L 175.492231 137.512421 
L 172.212893 146.682947 
L 168.933554 144.181895 
L 165.654215 143.348211 
L 162.374876 146.682947 
L 159.095537 150.851368 
L 155.816198 145.849263 
L 152.53686 146.682947 
L 149.257521 135.011368 
L 145.978182 131.676632 
L 142.698843 135.011368 
L 139.419504 137.512421 
L 136.140165 138.346105 
L 132.860826 138.346105 
L 129.581488 146.682947 
L 126.302149 160.021895 
L 123.02281 106.666105 
L 119.743471 120.005053 
L 116.464132 120.838737 
L 113.184793 120.838737 
L 109.905455 122.506105 
L 106.626116 117.504 
L 103.346777 115.836632 
L 100.067438 104.998737 
L 96.788099 122.506105 
L 93.50876 138.346105 
L 90.229421 142.514526 
L 86.950083 75.819789 
L 83.670744 66.649263 
L 80.391405 57.478737 
L 77.112066 57.478737 
L 73.832727 57.478737 
z
" clip-path="url(#p3e224d756e)" style="fill: #e377c2"/>
   </g>
   <g id="PolyCollection_8">
    <path d="M 73.832727 57.478737 
L 73.832727 57.478737 
L 77.112066 57.478737 
L 80.391405 57.478737 
L 83.670744 66.649263 
L 86.950083 75.819789 
L 90.229421 142.514526 
L 93.50876 138.346105 
L 96.788099 122.506105 
L 100.067438 104.998737 
L 103.346777 115.836632 
L 106.626116 117.504 
L 109.905455 122.506105 
L 113.184793 120.838737 
L 116.464132 120.838737 
L 119.743471 120.005053 
L 123.02281 106.666105 
L 126.302149 160.021895 
L 129.581488 146.682947 
L 132.860826 138.346105 
L 136.140165 138.346105 
L 139.419504 137.512421 
L 142.698843 135.011368 
L 145.978182 131.676632 
L 149.257521 135.011368 
L 152.53686 146.682947 
L 155.816198 145.849263 
L 159.095537 150.851368 
L 162.374876 146.682947 
L 165.654215 143.348211 
L 168.933554 144.181895 
L 172.212893 146.682947 
L 175.492231 137.512421 
L 178.77157 127.508211 
L 182.050909 110.000842 
L 185.330248 116.670316 
L 188.609587 124.173474 
L 191.888926 123.339789 
L 195.168264 130.842947 
L 198.447603 116.670316 
L 201.726942 103.331368 
L 205.006281 99.996632 
L 208.28562 132.510316 
L 211.564959 127.508211 
L 214.844298 119.171368 
L 218.123636 113.335579 
L 221.402975 113.335579 
L 224.682314 112.501895 
L 227.961653 115.002947 
L 231.240992 134.177684 
L 234.520331 128.341895 
L 237.799669 119.171368 
L 241.079008 130.009263 
L 244.358347 139.179789 
L 247.637686 142.514526 
L 250.917025 145.849263 
L 254.196364 108.333474 
L 257.475702 121.672421 
L 260.755041 120.838737 
L 264.03438 116.670316 
L 267.313719 119.171368 
L 270.593058 169.192421 
L 273.872397 215.878737 
L 277.151736 219.213474 
L 280.431074 221.714526 
L 283.710413 223.381895 
L 286.989752 224.215579 
L 290.269091 225.049263 
L 293.54843 224.215579 
L 296.827769 225.049263 
L 300.107107 224.215579 
L 303.386446 225.049263 
L 306.665785 224.215579 
L 309.945124 223.381895 
L 313.224463 224.215579 
L 316.503802 225.049263 
L 319.78314 224.215579 
L 323.062479 225.049263 
L 326.341818 225.882947 
L 329.621157 226.716632 
L 332.900496 185.032421 
L 336.179835 182.531368 
L 339.459174 181.697684 
L 342.738512 180.864 
L 346.017851 180.030316 
L 349.29719 181.697684 
L 352.576529 182.531368 
L 355.855868 181.697684 
L 359.135207 183.365053 
L 362.414545 184.198737 
L 365.693884 183.365053 
L 368.973223 182.531368 
L 372.252562 181.697684 
L 375.531901 183.365053 
L 378.81124 184.198737 
L 382.090579 183.365053 
L 385.369917 184.198737 
L 388.649256 183.365053 
L 391.928595 182.531368 
L 395.207934 184.198737 
L 398.487273 183.365053 
L 398.487273 183.365053 
L 398.487273 183.365053 
L 395.207934 184.198737 
L 391.928595 182.531368 
L 388.649256 183.365053 
L 385.369917 184.198737 
L 382.090579 183.365053 
L 378.81124 184.198737 
L 375.531901 183.365053 
L 372.252562 181.697684 
L 368.973223 182.531368 
L 365.693884 183.365053 
L 362.414545 184.198737 
L 359.135207 183.365053 
L 355.855868 181.697684 
L 352.576529 182.531368 
L 349.29719 181.697684 
L 346.017851 180.030316 
L 342.738512 180.864 
L 339.459174 181.697684 
L 336.179835 182.531368 
L 332.900496 185.032421 
L 329.621157 141.680842 
L 326.341818 141.680842 
L 323.062479 140.013474 
L 319.78314 140.013474 
L 316.503802 141.680842 
L 313.224463 142.514526 
L 309.945124 140.847158 
L 306.665785 140.847158 
L 303.386446 142.514526 
L 300.107107 142.514526 
L 296.827769 140.847158 
L 293.54843 142.514526 
L 290.269091 144.181895 
L 286.989752 145.015579 
L 283.710413 146.682947 
L 280.431074 151.685053 
L 277.151736 162.522947 
L 273.872397 185.866105 
L 270.593058 102.497684 
L 267.313719 57.478737 
L 264.03438 57.478737 
L 260.755041 57.478737 
L 257.475702 57.478737 
L 254.196364 56.645053 
L 250.917025 99.162947 
L 247.637686 97.495579 
L 244.358347 94.994526 
L 241.079008 94.160842 
L 237.799669 89.158737 
L 234.520331 89.992421 
L 231.240992 88.325053 
L 227.961653 90.826105 
L 224.682314 89.158737 
L 221.402975 88.325053 
L 218.123636 90.826105 
L 214.844298 90.826105 
L 211.564959 89.158737 
L 208.28562 89.992421 
L 205.006281 88.325053 
L 201.726942 89.992421 
L 198.447603 91.659789 
L 195.168264 93.327158 
L 191.888926 95.828211 
L 188.609587 93.327158 
L 185.330248 91.659789 
L 182.050909 89.992421 
L 178.77157 104.998737 
L 175.492231 113.335579 
L 172.212893 122.506105 
L 168.933554 119.171368 
L 165.654215 117.504 
L 162.374876 120.005053 
L 159.095537 126.674526 
L 155.816198 120.838737 
L 152.53686 123.339789 
L 149.257521 112.501895 
L 145.978182 111.668211 
L 142.698843 113.335579 
L 139.419504 115.002947 
L 136.140165 115.836632 
L 132.860826 118.337684 
L 129.581488 128.341895 
L 126.302149 148.350316 
L 123.02281 97.495579 
L 119.743471 93.327158 
L 116.464132 93.327158 
L 113.184793 90.826105 
L 109.905455 90.826105 
L 106.626116 90.826105 
L 103.346777 88.325053 
L 100.067438 78.320842 
L 96.788099 94.994526 
L 93.50876 111.668211 
L 90.229421 120.005053 
L 86.950083 57.478737 
L 83.670744 58.312421 
L 80.391405 57.478737 
L 77.112066 57.478737 
L 73.832727 57.478737 
z
" clip-path="url(#p3e224d756e)" style="fill: #7f7f7f"/>
   </g>
   <g id="PolyCollection_9">
    <path d="M 73.832727 57.478737 
L 73.832727 57.478737 
L 77.112066 57.478737 
L 80.391405 57.478737 
L 83.670744 58.312421 
L 86.950083 57.478737 
L 90.229421 120.005053 
L 93.50876 111.668211 
L 96.788099 94.994526 
L 100.067438 78.320842 
L 103.346777 88.325053 
L 106.626116 90.826105 
L 109.905455 90.826105 
L 113.184793 90.826105 
L 116.464132 93.327158 
L 119.743471 93.327158 
L 123.02281 97.495579 
L 126.302149 148.350316 
L 129.581488 128.341895 
L 132.860826 118.337684 
L 136.140165 115.836632 
L 139.419504 115.002947 
L 142.698843 113.335579 
L 145.978182 111.668211 
L 149.257521 112.501895 
L 152.53686 123.339789 
L 155.816198 120.838737 
L 159.095537 126.674526 
L 162.374876 120.005053 
L 165.654215 117.504 
L 168.933554 119.171368 
L 172.212893 122.506105 
L 175.492231 113.335579 
L 178.77157 104.998737 
L 182.050909 89.992421 
L 185.330248 91.659789 
L 188.609587 93.327158 
L 191.888926 95.828211 
L 195.168264 93.327158 
L 198.447603 91.659789 
L 201.726942 89.992421 
L 205.006281 88.325053 
L 208.28562 89.992421 
L 211.564959 89.158737 
L 214.844298 90.826105 
L 218.123636 90.826105 
L 221.402975 88.325053 
L 224.682314 89.158737 
L 227.961653 90.826105 
L 231.240992 88.325053 
L 234.520331 89.992421 
L 237.799669 89.158737 
L 241.079008 94.160842 
L 244.358347 94.994526 
L 247.637686 97.495579 
L 250.917025 99.162947 
L 254.196364 56.645053 
L 257.475702 57.478737 
L 260.755041 57.478737 
L 264.03438 57.478737 
L 267.313719 57.478737 
L 270.593058 102.497684 
L 273.872397 185.866105 
L 277.151736 162.522947 
L 280.431074 151.685053 
L 283.710413 146.682947 
L 286.989752 145.015579 
L 290.269091 144.181895 
L 293.54843 142.514526 
L 296.827769 140.847158 
L 300.107107 142.514526 
L 303.386446 142.514526 
L 306.665785 140.847158 
L 309.945124 140.847158 
L 313.224463 142.514526 
L 316.503802 141.680842 
L 319.78314 140.013474 
L 323.062479 140.013474 
L 326.341818 141.680842 
L 329.621157 141.680842 
L 332.900496 185.032421 
L 336.179835 182.531368 
L 339.459174 181.697684 
L 342.738512 180.864 
L 346.017851 180.030316 
L 349.29719 181.697684 
L 352.576529 182.531368 
L 355.855868 181.697684 
L 359.135207 183.365053 
L 362.414545 184.198737 
L 365.693884 183.365053 
L 368.973223 182.531368 
L 372.252562 181.697684 
L 375.531901 183.365053 
L 378.81124 184.198737 
L 382.090579 183.365053 
L 385.369917 184.198737 
L 388.649256 183.365053 
L 391.928595 182.531368 
L 395.207934 184.198737 
L 398.487273 183.365053 
L 398.487273 183.365053 
L 398.487273 183.365053 
L 395.207934 184.198737 
L 391.928595 182.531368 
L 388.649256 183.365053 
L 385.369917 184.198737 
L 382.090579 183.365053 
L 378.81124 184.198737 
L 375.531901 183.365053 
L 372.252562 181.697684 
L 368.973223 182.531368 
L 365.693884 183.365053 
L 362.414545 184.198737 
L 359.135207 183.365053 
L 355.855868 181.697684 
L 352.576529 182.531368 
L 349.29719 181.697684 
L 346.017851 180.030316 
L 342.738512 180.864 
L 339.459174 181.697684 
L 336.179835 182.531368 
L 332.900496 185.032421 
L 329.621157 141.680842 
L 326.341818 141.680842 
L 323.062479 140.013474 
L 319.78314 140.013474 
L 316.503802 141.680842 
L 313.224463 142.514526 
L 309.945124 140.847158 
L 306.665785 140.847158 
L 303.386446 142.514526 
L 300.107107 142.514526 
L 296.827769 140.847158 
L 293.54843 142.514526 
L 290.269091 144.181895 
L 286.989752 145.015579 
L 283.710413 146.682947 
L 280.431074 151.685053 
L 277.151736 162.522947 
L 273.872397 185.866105 
L 270.593058 102.497684 
L 267.313719 57.478737 
L 264.03438 57.478737 
L 260.755041 57.478737 
L 257.475702 57.478737 
L 254.196364 56.645053 
L 250.917025 99.162947 
L 247.637686 97.495579 
L 244.358347 94.994526 
L 241.079008 94.160842 
L 237.799669 89.158737 
L 234.520331 89.992421 
L 231.240992 88.325053 
L 227.961653 90.826105 
L 224.682314 89.158737 
L 221.402975 88.325053 
L 218.123636 90.826105 
L 214.844298 90.826105 
L 211.564959 89.158737 
L 208.28562 89.992421 
L 205.006281 88.325053 
L 201.726942 89.992421 
L 198.447603 91.659789 
L 195.168264 93.327158 
L 191.888926 95.828211 
L 188.609587 93.327158 
L 185.330248 91.659789 
L 182.050909 89.992421 
L 178.77157 87.491368 
L 175.492231 87.491368 
L 172.212893 89.158737 
L 168.933554 88.325053 
L 165.654215 86.657684 
L 162.374876 86.657684 
L 159.095537 87.491368 
L 155.816198 90.826105 
L 152.53686 91.659789 
L 149.257521 83.322947 
L 145.978182 83.322947 
L 142.698843 84.990316 
L 139.419504 86.657684 
L 136.140165 87.491368 
L 132.860826 89.992421 
L 129.581488 101.664 
L 126.302149 123.339789 
L 123.02281 71.651368 
L 119.743471 58.312421 
L 116.464132 59.146105 
L 113.184793 59.146105 
L 109.905455 58.312421 
L 106.626116 58.312421 
L 103.346777 59.146105 
L 100.067438 59.146105 
L 96.788099 58.312421 
L 93.50876 57.478737 
L 90.229421 57.478737 
L 86.950083 56.645053 
L 83.670744 58.312421 
L 80.391405 57.478737 
L 77.112066 57.478737 
L 73.832727 57.478737 
z
" clip-path="url(#p3e224d756e)" style="fill: #bcbd22"/>
   </g>
   <g id="PolyCollection_10">
    <path d="M 73.832727 57.478737 
L 73.832727 57.478737 
L 77.112066 57.478737 
L 80.391405 57.478737 
L 83.670744 58.312421 
L 86.950083 56.645053 
L 90.229421 57.478737 
L 93.50876 57.478737 
L 96.788099 58.312421 
L 100.067438 59.146105 
L 103.346777 59.146105 
L 106.626116 58.312421 
L 109.905455 58.312421 
L 113.184793 59.146105 
L 116.464132 59.146105 
L 119.743471 58.312421 
L 123.02281 71.651368 
L 126.302149 123.339789 
L 129.581488 101.664 
L 132.860826 89.992421 
L 136.140165 87.491368 
L 139.419504 86.657684 
L 142.698843 84.990316 
L 145.978182 83.322947 
L 149.257521 83.322947 
L 152.53686 91.659789 
L 155.816198 90.826105 
L 159.095537 87.491368 
L 162.374876 86.657684 
L 165.654215 86.657684 
L 168.933554 88.325053 
L 172.212893 89.158737 
L 175.492231 87.491368 
L 178.77157 87.491368 
L 182.050909 89.992421 
L 185.330248 91.659789 
L 188.609587 93.327158 
L 191.888926 95.828211 
L 195.168264 93.327158 
L 198.447603 91.659789 
L 201.726942 89.992421 
L 205.006281 88.325053 
L 208.28562 89.992421 
L 211.564959 89.158737 
L 214.844298 90.826105 
L 218.123636 90.826105 
L 221.402975 88.325053 
L 224.682314 89.158737 
L 227.961653 90.826105 
L 231.240992 88.325053 
L 234.520331 89.992421 
L 237.799669 89.158737 
L 241.079008 94.160842 
L 244.358347 94.994526 
L 247.637686 97.495579 
L 250.917025 99.162947 
L 254.196364 56.645053 
L 257.475702 57.478737 
L 260.755041 57.478737 
L 264.03438 57.478737 
L 267.313719 57.478737 
L 270.593058 102.497684 
L 273.872397 185.866105 
L 277.151736 162.522947 
L 280.431074 151.685053 
L 283.710413 146.682947 
L 286.989752 145.015579 
L 290.269091 144.181895 
L 293.54843 142.514526 
L 296.827769 140.847158 
L 300.107107 142.514526 
L 303.386446 142.514526 
L 306.665785 140.847158 
L 309.945124 140.847158 
L 313.224463 142.514526 
L 316.503802 141.680842 
L 319.78314 140.013474 
L 323.062479 140.013474 
L 326.341818 141.680842 
L 329.621157 141.680842 
L 332.900496 185.032421 
L 336.179835 182.531368 
L 339.459174 181.697684 
L 342.738512 180.864 
L 346.017851 180.030316 
L 349.29719 181.697684 
L 352.576529 182.531368 
L 355.855868 181.697684 
L 359.135207 183.365053 
L 362.414545 184.198737 
L 365.693884 183.365053 
L 368.973223 182.531368 
L 372.252562 181.697684 
L 375.531901 183.365053 
L 378.81124 184.198737 
L 382.090579 183.365053 
L 385.369917 184.198737 
L 388.649256 183.365053 
L 391.928595 182.531368 
L 395.207934 184.198737 
L 398.487273 183.365053 
L 398.487273 183.365053 
L 398.487273 183.365053 
L 395.207934 184.198737 
L 391.928595 182.531368 
L 388.649256 183.365053 
L 385.369917 184.198737 
L 382.090579 183.365053 
L 378.81124 184.198737 
L 375.531901 183.365053 
L 372.252562 181.697684 
L 368.973223 182.531368 
L 365.693884 183.365053 
L 362.414545 184.198737 
L 359.135207 183.365053 
L 355.855868 181.697684 
L 352.576529 182.531368 
L 349.29719 181.697684 
L 346.017851 180.030316 
L 342.738512 180.864 
L 339.459174 181.697684 
L 336.179835 182.531368 
L 332.900496 185.032421 
L 329.621157 141.680842 
L 326.341818 141.680842 
L 323.062479 140.013474 
L 319.78314 140.013474 
L 316.503802 141.680842 
L 313.224463 142.514526 
L 309.945124 140.847158 
L 306.665785 140.847158 
L 303.386446 142.514526 
L 300.107107 142.514526 
L 296.827769 140.847158 
L 293.54843 142.514526 
L 290.269091 144.181895 
L 286.989752 145.015579 
L 283.710413 146.682947 
L 280.431074 151.685053 
L 277.151736 162.522947 
L 273.872397 185.866105 
L 270.593058 102.497684 
L 267.313719 57.478737 
L 264.03438 57.478737 
L 260.755041 57.478737 
L 257.475702 57.478737 
L 254.196364 56.645053 
L 250.917025 56.645053 
L 247.637686 55.811368 
L 244.358347 57.478737 
L 241.079008 59.146105 
L 237.799669 57.478737 
L 234.520331 55.811368 
L 231.240992 54.977684 
L 227.961653 56.645053 
L 224.682314 57.478737 
L 221.402975 57.478737 
L 218.123636 59.146105 
L 214.844298 58.312421 
L 211.564959 56.645053 
L 208.28562 56.645053 
L 205.006281 56.645053 
L 201.726942 56.645053 
L 198.447603 56.645053 
L 195.168264 58.312421 
L 191.888926 58.312421 
L 188.609587 57.478737 
L 185.330248 57.478737 
L 182.050909 58.312421 
L 178.77157 58.312421 
L 175.492231 59.146105 
L 172.212893 59.979789 
L 168.933554 58.312421 
L 165.654215 56.645053 
L 162.374876 54.977684 
L 159.095537 57.478737 
L 155.816198 59.146105 
L 152.53686 58.312421 
L 149.257521 54.144 
L 145.978182 56.645053 
L 142.698843 57.478737 
L 139.419504 58.312421 
L 136.140165 56.645053 
L 132.860826 54.977684 
L 129.581488 56.645053 
L 126.302149 59.979789 
L 123.02281 58.312421 
L 119.743471 58.312421 
L 116.464132 59.146105 
L 113.184793 59.146105 
L 109.905455 58.312421 
L 106.626116 58.312421 
L 103.346777 59.146105 
L 100.067438 59.146105 
L 96.788099 58.312421 
L 93.50876 57.478737 
L 90.229421 57.478737 
L 86.950083 56.645053 
L 83.670744 58.312421 
L 80.391405 57.478737 
L 77.112066 57.478737 
L 73.832727 57.478737 
z
" clip-path="url(#p3e224d756e)" style="fill: #17becf"/>
   </g>
   <g id="PolyCollection_11">
    <path d="M 73.832727 57.478737 
L 73.832727 57.478737 
L 77.112066 57.478737 
L 80.391405 57.478737 
L 83.670744 58.312421 
L 86.950083 56.645053 
L 90.229421 57.478737 
L 93.50876 57.478737 
L 96.788099 58.312421 
L 100.067438 59.146105 
L 103.346777 59.146105 
L 106.626116 58.312421 
L 109.905455 58.312421 
L 113.184793 59.146105 
L 116.464132 59.146105 
L 119.743471 58.312421 
L 123.02281 58.312421 
L 126.302149 59.979789 
L 129.581488 56.645053 
L 132.860826 54.977684 
L 136.140165 56.645053 
L 139.419504 58.312421 
L 142.698843 57.478737 
L 145.978182 56.645053 
L 149.257521 54.144 
L 152.53686 58.312421 
L 155.816198 59.146105 
L 159.095537 57.478737 
L 162.374876 54.977684 
L 165.654215 56.645053 
L 168.933554 58.312421 
L 172.212893 59.979789 
L 175.492231 59.146105 
L 178.77157 58.312421 
L 182.050909 58.312421 
L 185.330248 57.478737 
L 188.609587 57.478737 
L 191.888926 58.312421 
L 195.168264 58.312421 
L 198.447603 56.645053 
L 201.726942 56.645053 
L 205.006281 56.645053 
L 208.28562 56.645053 
L 211.564959 56.645053 
L 214.844298 58.312421 
L 218.123636 59.146105 
L 221.402975 57.478737 
L 224.682314 57.478737 
L 227.961653 56.645053 
L 231.240992 54.977684 
L 234.520331 55.811368 
L 237.799669 57.478737 
L 241.079008 59.146105 
L 244.358347 57.478737 
L 247.637686 55.811368 
L 250.917025 56.645053 
L 254.196364 56.645053 
L 257.475702 57.478737 
L 260.755041 57.478737 
L 264.03438 57.478737 
L 267.313719 57.478737 
L 270.593058 102.497684 
L 273.872397 185.866105 
L 277.151736 162.522947 
L 280.431074 151.685053 
L 283.710413 146.682947 
L 286.989752 145.015579 
L 290.269091 144.181895 
L 293.54843 142.514526 
L 296.827769 140.847158 
L 300.107107 142.514526 
L 303.386446 142.514526 
L 306.665785 140.847158 
L 309.945124 140.847158 
L 313.224463 142.514526 
L 316.503802 141.680842 
L 319.78314 140.013474 
L 323.062479 140.013474 
L 326.341818 141.680842 
L 329.621157 141.680842 
L 332.900496 185.032421 
L 336.179835 182.531368 
L 339.459174 181.697684 
L 342.738512 180.864 
L 346.017851 180.030316 
L 349.29719 181.697684 
L 352.576529 182.531368 
L 355.855868 181.697684 
L 359.135207 183.365053 
L 362.414545 184.198737 
L 365.693884 183.365053 
L 368.973223 182.531368 
L 372.252562 181.697684 
L 375.531901 183.365053 
L 378.81124 184.198737 
L 382.090579 183.365053 
L 385.369917 184.198737 
L 388.649256 183.365053 
L 391.928595 182.531368 
L 395.207934 184.198737 
L 398.487273 183.365053 
L 398.487273 57.478737 
L 398.487273 57.478737 
L 395.207934 57.478737 
L 391.928595 57.478737 
L 388.649256 57.478737 
L 385.369917 57.478737 
L 382.090579 57.478737 
L 378.81124 57.478737 
L 375.531901 57.478737 
L 372.252562 57.478737 
L 368.973223 57.478737 
L 365.693884 57.478737 
L 362.414545 57.478737 
L 359.135207 57.478737 
L 355.855868 57.478737 
L 352.576529 57.478737 
L 349.29719 57.478737 
L 346.017851 57.478737 
L 342.738512 57.478737 
L 339.459174 57.478737 
L 336.179835 57.478737 
L 332.900496 57.478737 
L 329.621157 58.312421 
L 326.341818 57.478737 
L 323.062479 57.478737 
L 319.78314 56.645053 
L 316.503802 57.478737 
L 313.224463 57.478737 
L 309.945124 56.645053 
L 306.665785 57.478737 
L 303.386446 58.312421 
L 300.107107 57.478737 
L 296.827769 57.478737 
L 293.54843 57.478737 
L 290.269091 57.478737 
L 286.989752 57.478737 
L 283.710413 57.478737 
L 280.431074 57.478737 
L 277.151736 56.645053 
L 273.872397 57.478737 
L 270.593058 57.478737 
L 267.313719 57.478737 
L 264.03438 57.478737 
L 260.755041 57.478737 
L 257.475702 57.478737 
L 254.196364 56.645053 
L 250.917025 56.645053 
L 247.637686 55.811368 
L 244.358347 57.478737 
L 241.079008 59.146105 
L 237.799669 57.478737 
L 234.520331 55.811368 
L 231.240992 54.977684 
L 227.961653 56.645053 
L 224.682314 57.478737 
L 221.402975 57.478737 
L 218.123636 59.146105 
L 214.844298 58.312421 
L 211.564959 56.645053 
L 208.28562 56.645053 
L 205.006281 56.645053 
L 201.726942 56.645053 
L 198.447603 56.645053 
L 195.168264 58.312421 
L 191.888926 58.312421 
L 188.609587 57.478737 
L 185.330248 57.478737 
L 182.050909 58.312421 
L 178.77157 58.312421 
L 175.492231 59.146105 
L 172.212893 59.979789 
L 168.933554 58.312421 
L 165.654215 56.645053 
L 162.374876 54.977684 
L 159.095537 57.478737 
L 155.816198 59.146105 
L 152.53686 58.312421 
L 149.257521 54.144 
L 145.978182 56.645053 
L 142.698843 57.478737 
L 139.419504 58.312421 
L 136.140165 56.645053 
L 132.860826 54.977684 
L 129.581488 56.645053 
L 126.302149 59.979789 
L 123.02281 58.312421 
L 119.743471 58.312421 
L 116.464132 59.146105 
L 113.184793 59.146105 
L 109.905455 58.312421 
L 106.626116 58.312421 
L 103.346777 59.146105 
L 100.067438 59.146105 
L 96.788099 58.312421 
L 93.50876 57.478737 
L 90.229421 57.478737 
L 86.950083 56.645053 
L 83.670744 58.312421 
L 80.391405 57.478737 
L 77.112066 57.478737 
L 73.832727 57.478737 
z
" clip-path="url(#p3e224d756e)" style="fill: #1f77b4"/>
   </g>
   <g id="matplotlib.axis_1">
    <g id="xtick_1">
     <g id="line2d_1">
      <defs>
       <path id="m849759995c" d="M 0 0 
L 0 3.5 
" style="stroke: #000000; stroke-width: 0.8"/>
      </defs>
      <g>
       <use xlink:href="#m849759995c" x="73.832727" y="307.584" style="stroke: #000000; stroke-width: 0.8"/>
      </g>
     </g>
     <g id="text_1">
      <!-- 0 -->
      <g transform="translate(70.651477 322.182437) scale(0.1 -0.1)">
       <defs>
        <path id="DejaVuSans-30" d="M 2034 4250 
Q 1547 4250 1301 3770 
Q 1056 3291 1056 2328 
Q 1056 1369 1301 889 
Q 1547 409 2034 409 
Q 2525 409 2770 889 
Q 3016 1369 3016 2328 
Q 3016 3291 2770 3770 
Q 2525 4250 2034 4250 
z
M 2034 4750 
Q 2819 4750 3233 4129 
Q 3647 3509 3647 2328 
Q 3647 1150 3233 529 
Q 2819 -91 2034 -91 
Q 1250 -91 836 529 
Q 422 1150 422 2328 
Q 422 3509 836 4129 
Q 1250 4750 2034 4750 
z
" transform="scale(0.015625)"/>
       </defs>
       <use xlink:href="#DejaVuSans-30"/>
      </g>
     </g>
    </g>
    <g id="xtick_2">
     <g id="line2d_2">
      <g>
       <use xlink:href="#m849759995c" x="139.419504" y="307.584" style="stroke: #000000; stroke-width: 0.8"/>
      </g>
     </g>
     <g id="text_2">
      <!-- 20 -->
      <g transform="translate(133.057004 322.182437) scale(0.1 -0.1)">
       <defs>
        <path id="DejaVuSans-32" d="M 1228 531 
L 3431 531 
L 3431 0 
L 469 0 
L 469 531 
Q 828 903 1448 1529 
Q 2069 2156 2228 2338 
Q 2531 2678 2651 2914 
Q 2772 3150 2772 3378 
Q 2772 3750 2511 3984 
Q 2250 4219 1831 4219 
Q 1534 4219 1204 4116 
Q 875 4013 500 3803 
L 500 4441 
Q 881 4594 1212 4672 
Q 1544 4750 1819 4750 
Q 2544 4750 2975 4387 
Q 3406 4025 3406 3419 
Q 3406 3131 3298 2873 
Q 3191 2616 2906 2266 
Q 2828 2175 2409 1742 
Q 1991 1309 1228 531 
z
" transform="scale(0.015625)"/>
       </defs>
       <use xlink:href="#DejaVuSans-32"/>
       <use xlink:href="#DejaVuSans-30" x="63.623047"/>
      </g>
     </g>
    </g>
    <g id="xtick_3">
     <g id="line2d_3">
      <g>
       <use xlink:href="#m849759995c" x="205.006281" y="307.584" style="stroke: #000000; stroke-width: 0.8"/>
      </g>
     </g>
     <g id="text_3">
      <!-- 40 -->
      <g transform="translate(198.643781 322.182437) scale(0.1 -0.1)">
       <defs>
        <path id="DejaVuSans-34" d="M 2419 4116 
L 825 1625 
L 2419 1625 
L 2419 4116 
z
M 2253 4666 
L 3047 4666 
L 3047 1625 
L 3713 1625 
L 3713 1100 
L 3047 1100 
L 3047 0 
L 2419 0 
L 2419 1100 
L 313 1100 
L 313 1709 
L 2253 4666 
z
" transform="scale(0.015625)"/>
       </defs>
       <use xlink:href="#DejaVuSans-34"/>
       <use xlink:href="#DejaVuSans-30" x="63.623047"/>
      </g>
     </g>
    </g>
    <g id="xtick_4">
     <g id="line2d_4">
      <g>
       <use xlink:href="#m849759995c" x="270.593058" y="307.584" style="stroke: #000000; stroke-width: 0.8"/>
      </g>
     </g>
     <g id="text_4">
      <!-- 60 -->
      <g transform="translate(264.230558 322.182437) scale(0.1 -0.1)">
       <defs>
        <path id="DejaVuSans-36" d="M 2113 2584 
Q 1688 2584 1439 2293 
Q 1191 2003 1191 1497 
Q 1191 994 1439 701 
Q 1688 409 2113 409 
Q 2538 409 2786 701 
Q 3034 994 3034 1497 
Q 3034 2003 2786 2293 
Q 2538 2584 2113 2584 
z
M 3366 4563 
L 3366 3988 
Q 3128 4100 2886 4159 
Q 2644 4219 2406 4219 
Q 1781 4219 1451 3797 
Q 1122 3375 1075 2522 
Q 1259 2794 1537 2939 
Q 1816 3084 2150 3084 
Q 2853 3084 3261 2657 
Q 3669 2231 3669 1497 
Q 3669 778 3244 343 
Q 2819 -91 2113 -91 
Q 1303 -91 875 529 
Q 447 1150 447 2328 
Q 447 3434 972 4092 
Q 1497 4750 2381 4750 
Q 2619 4750 2861 4703 
Q 3103 4656 3366 4563 
z
" transform="scale(0.015625)"/>
       </defs>
       <use xlink:href="#DejaVuSans-36"/>
       <use xlink:href="#DejaVuSans-30" x="63.623047"/>
      </g>
     </g>
    </g>
    <g id="xtick_5">
     <g id="line2d_5">
      <g>
       <use xlink:href="#m849759995c" x="336.179835" y="307.584" style="stroke: #000000; stroke-width: 0.8"/>
      </g>
     </g>
     <g id="text_5">
      <!-- 80 -->
      <g transform="translate(329.817335 322.182437) scale(0.1 -0.1)">
       <defs>
        <path id="DejaVuSans-38" d="M 2034 2216 
Q 1584 2216 1326 1975 
Q 1069 1734 1069 1313 
Q 1069 891 1326 650 
Q 1584 409 2034 409 
Q 2484 409 2743 651 
Q 3003 894 3003 1313 
Q 3003 1734 2745 1975 
Q 2488 2216 2034 2216 
z
M 1403 2484 
Q 997 2584 770 2862 
Q 544 3141 544 3541 
Q 544 4100 942 4425 
Q 1341 4750 2034 4750 
Q 2731 4750 3128 4425 
Q 3525 4100 3525 3541 
Q 3525 3141 3298 2862 
Q 3072 2584 2669 2484 
Q 3125 2378 3379 2068 
Q 3634 1759 3634 1313 
Q 3634 634 3220 271 
Q 2806 -91 2034 -91 
Q 1263 -91 848 271 
Q 434 634 434 1313 
Q 434 1759 690 2068 
Q 947 2378 1403 2484 
z
M 1172 3481 
Q 1172 3119 1398 2916 
Q 1625 2713 2034 2713 
Q 2441 2713 2670 2916 
Q 2900 3119 2900 3481 
Q 2900 3844 2670 4047 
Q 2441 4250 2034 4250 
Q 1625 4250 1398 4047 
Q 1172 3844 1172 3481 
z
" transform="scale(0.015625)"/>
       </defs>
       <use xlink:href="#DejaVuSans-38"/>
       <use xlink:href="#DejaVuSans-30" x="63.623047"/>
      </g>
     </g>
    </g>
    <g id="xtick_6">
     <g id="line2d_6">
      <g>
       <use xlink:href="#m849759995c" x="401.766612" y="307.584" style="stroke: #000000; stroke-width: 0.8"/>
      </g>
     </g>
     <g id="text_6">
      <!-- 100 -->
      <g transform="translate(392.222862 322.182437) scale(0.1 -0.1)">
       <defs>
        <path id="DejaVuSans-31" d="M 794 531 
L 1825 531 
L 1825 4091 
L 703 3866 
L 703 4441 
L 1819 4666 
L 2450 4666 
L 2450 531 
L 3481 531 
L 3481 0 
L 794 0 
L 794 531 
z
" transform="scale(0.015625)"/>
       </defs>
       <use xlink:href="#DejaVuSans-31"/>
       <use xlink:href="#DejaVuSans-30" x="63.623047"/>
       <use xlink:href="#DejaVuSans-30" x="127.246094"/>
      </g>
     </g>
    </g>
    <g id="text_7">
     <!-- Generations -->
     <g transform="translate(205.662344 335.860562) scale(0.1 -0.1)">
      <defs>
       <path id="DejaVuSans-47" d="M 3809 666 
L 3809 1919 
L 2778 1919 
L 2778 2438 
L 4434 2438 
L 4434 434 
Q 4069 175 3628 42 
Q 3188 -91 2688 -91 
Q 1594 -91 976 548 
Q 359 1188 359 2328 
Q 359 3472 976 4111 
Q 1594 4750 2688 4750 
Q 3144 4750 3555 4637 
Q 3966 4525 4313 4306 
L 4313 3634 
Q 3963 3931 3569 4081 
Q 3175 4231 2741 4231 
Q 1884 4231 1454 3753 
Q 1025 3275 1025 2328 
Q 1025 1384 1454 906 
Q 1884 428 2741 428 
Q 3075 428 3337 486 
Q 3600 544 3809 666 
z
" transform="scale(0.015625)"/>
       <path id="DejaVuSans-65" d="M 3597 1894 
L 3597 1613 
L 953 1613 
Q 991 1019 1311 708 
Q 1631 397 2203 397 
Q 2534 397 2845 478 
Q 3156 559 3463 722 
L 3463 178 
Q 3153 47 2828 -22 
Q 2503 -91 2169 -91 
Q 1331 -91 842 396 
Q 353 884 353 1716 
Q 353 2575 817 3079 
Q 1281 3584 2069 3584 
Q 2775 3584 3186 3129 
Q 3597 2675 3597 1894 
z
M 3022 2063 
Q 3016 2534 2758 2815 
Q 2500 3097 2075 3097 
Q 1594 3097 1305 2825 
Q 1016 2553 972 2059 
L 3022 2063 
z
" transform="scale(0.015625)"/>
       <path id="DejaVuSans-6e" d="M 3513 2113 
L 3513 0 
L 2938 0 
L 2938 2094 
Q 2938 2591 2744 2837 
Q 2550 3084 2163 3084 
Q 1697 3084 1428 2787 
Q 1159 2491 1159 1978 
L 1159 0 
L 581 0 
L 581 3500 
L 1159 3500 
L 1159 2956 
Q 1366 3272 1645 3428 
Q 1925 3584 2291 3584 
Q 2894 3584 3203 3211 
Q 3513 2838 3513 2113 
z
" transform="scale(0.015625)"/>
       <path id="DejaVuSans-72" d="M 2631 2963 
Q 2534 3019 2420 3045 
Q 2306 3072 2169 3072 
Q 1681 3072 1420 2755 
Q 1159 2438 1159 1844 
L 1159 0 
L 581 0 
L 581 3500 
L 1159 3500 
L 1159 2956 
Q 1341 3275 1631 3429 
Q 1922 3584 2338 3584 
Q 2397 3584 2469 3576 
Q 2541 3569 2628 3553 
L 2631 2963 
z
" transform="scale(0.015625)"/>
       <path id="DejaVuSans-61" d="M 2194 1759 
Q 1497 1759 1228 1600 
Q 959 1441 959 1056 
Q 959 750 1161 570 
Q 1363 391 1709 391 
Q 2188 391 2477 730 
Q 2766 1069 2766 1631 
L 2766 1759 
L 2194 1759 
z
M 3341 1997 
L 3341 0 
L 2766 0 
L 2766 531 
Q 2569 213 2275 61 
Q 1981 -91 1556 -91 
Q 1019 -91 701 211 
Q 384 513 384 1019 
Q 384 1609 779 1909 
Q 1175 2209 1959 2209 
L 2766 2209 
L 2766 2266 
Q 2766 2663 2505 2880 
Q 2244 3097 1772 3097 
Q 1472 3097 1187 3025 
Q 903 2953 641 2809 
L 641 3341 
Q 956 3463 1253 3523 
Q 1550 3584 1831 3584 
Q 2591 3584 2966 3190 
Q 3341 2797 3341 1997 
z
" transform="scale(0.015625)"/>
       <path id="DejaVuSans-74" d="M 1172 4494 
L 1172 3500 
L 2356 3500 
L 2356 3053 
L 1172 3053 
L 1172 1153 
Q 1172 725 1289 603 
Q 1406 481 1766 481 
L 2356 481 
L 2356 0 
L 1766 0 
Q 1100 0 847 248 
Q 594 497 594 1153 
L 594 3053 
L 172 3053 
L 172 3500 
L 594 3500 
L 594 4494 
L 1172 4494 
z
" transform="scale(0.015625)"/>
       <path id="DejaVuSans-69" d="M 603 3500 
L 1178 3500 
L 1178 0 
L 603 0 
L 603 3500 
z
M 603 4863 
L 1178 4863 
L 1178 4134 
L 603 4134 
L 603 4863 
z
" transform="scale(0.015625)"/>
       <path id="DejaVuSans-6f" d="M 1959 3097 
Q 1497 3097 1228 2736 
Q 959 2375 959 1747 
Q 959 1119 1226 758 
Q 1494 397 1959 397 
Q 2419 397 2687 759 
Q 2956 1122 2956 1747 
Q 2956 2369 2687 2733 
Q 2419 3097 1959 3097 
z
M 1959 3584 
Q 2709 3584 3137 3096 
Q 3566 2609 3566 1747 
Q 3566 888 3137 398 
Q 2709 -91 1959 -91 
Q 1206 -91 779 398 
Q 353 888 353 1747 
Q 353 2609 779 3096 
Q 1206 3584 1959 3584 
z
" transform="scale(0.015625)"/>
       <path id="DejaVuSans-73" d="M 2834 3397 
L 2834 2853 
Q 2591 2978 2328 3040 
Q 2066 3103 1784 3103 
Q 1356 3103 1142 2972 
Q 928 2841 928 2578 
Q 928 2378 1081 2264 
Q 1234 2150 1697 2047 
L 1894 2003 
Q 2506 1872 2764 1633 
Q 3022 1394 3022 966 
Q 3022 478 2636 193 
Q 2250 -91 1575 -91 
Q 1294 -91 989 -36 
Q 684 19 347 128 
L 347 722 
Q 666 556 975 473 
Q 1284 391 1588 391 
Q 1994 391 2212 530 
Q 2431 669 2431 922 
Q 2431 1156 2273 1281 
Q 2116 1406 1581 1522 
L 1381 1569 
Q 847 1681 609 1914 
Q 372 2147 372 2553 
Q 372 3047 722 3315 
Q 1072 3584 1716 3584 
Q 2034 3584 2315 3537 
Q 2597 3491 2834 3397 
z
" transform="scale(0.015625)"/>
      </defs>
      <use xlink:href="#DejaVuSans-47"/>
      <use xlink:href="#DejaVuSans-65" x="77.490234"/>
      <use xlink:href="#DejaVuSans-6e" x="139.013672"/>
      <use xlink:href="#DejaVuSans-65" x="202.392578"/>
      <use xlink:href="#DejaVuSans-72" x="263.916016"/>
      <use xlink:href="#DejaVuSans-61" x="305.029297"/>
      <use xlink:href="#DejaVuSans-74" x="366.308594"/>
      <use xlink:href="#DejaVuSans-69" x="405.517578"/>
      <use xlink:href="#DejaVuSans-6f" x="433.300781"/>
      <use xlink:href="#DejaVuSans-6e" x="494.482422"/>
      <use xlink:href="#DejaVuSans-73" x="557.861328"/>
     </g>
    </g>
   </g>
   <g id="matplotlib.axis_2">
    <g id="ytick_1">
     <g id="line2d_7">
      <defs>
       <path id="m8e648f9926" d="M 0 0 
L -3.5 0 
" style="stroke: #000000; stroke-width: 0.8"/>
      </defs>
      <g>
       <use xlink:href="#m8e648f9926" x="57.6" y="307.584" style="stroke: #000000; stroke-width: 0.8"/>
      </g>
     </g>
     <g id="text_8">
      <!-- 0 -->
      <g transform="translate(44.2375 311.383219) scale(0.1 -0.1)">
       <use xlink:href="#DejaVuSans-30"/>
      </g>
     </g>
    </g>
    <g id="ytick_2">
     <g id="line2d_8">
      <g>
       <use xlink:href="#m8e648f9926" x="57.6" y="265.899789" style="stroke: #000000; stroke-width: 0.8"/>
      </g>
     </g>
     <g id="text_9">
      <!-- 50 -->
      <g transform="translate(37.875 269.699008) scale(0.1 -0.1)">
       <defs>
        <path id="DejaVuSans-35" d="M 691 4666 
L 3169 4666 
L 3169 4134 
L 1269 4134 
L 1269 2991 
Q 1406 3038 1543 3061 
Q 1681 3084 1819 3084 
Q 2600 3084 3056 2656 
Q 3513 2228 3513 1497 
Q 3513 744 3044 326 
Q 2575 -91 1722 -91 
Q 1428 -91 1123 -41 
Q 819 9 494 109 
L 494 744 
Q 775 591 1075 516 
Q 1375 441 1709 441 
Q 2250 441 2565 725 
Q 2881 1009 2881 1497 
Q 2881 1984 2565 2268 
Q 2250 2553 1709 2553 
Q 1456 2553 1204 2497 
Q 953 2441 691 2322 
L 691 4666 
z
" transform="scale(0.015625)"/>
       </defs>
       <use xlink:href="#DejaVuSans-35"/>
       <use xlink:href="#DejaVuSans-30" x="63.623047"/>
      </g>
     </g>
    </g>
    <g id="ytick_3">
     <g id="line2d_9">
      <g>
       <use xlink:href="#m8e648f9926" x="57.6" y="224.215579" style="stroke: #000000; stroke-width: 0.8"/>
      </g>
     </g>
     <g id="text_10">
      <!-- 100 -->
      <g transform="translate(31.5125 228.014798) scale(0.1 -0.1)">
       <use xlink:href="#DejaVuSans-31"/>
       <use xlink:href="#DejaVuSans-30" x="63.623047"/>
       <use xlink:href="#DejaVuSans-30" x="127.246094"/>
      </g>
     </g>
    </g>
    <g id="ytick_4">
     <g id="line2d_10">
      <g>
       <use xlink:href="#m8e648f9926" x="57.6" y="182.531368" style="stroke: #000000; stroke-width: 0.8"/>
      </g>
     </g>
     <g id="text_11">
      <!-- 150 -->
      <g transform="translate(31.5125 186.330587) scale(0.1 -0.1)">
       <use xlink:href="#DejaVuSans-31"/>
       <use xlink:href="#DejaVuSans-35" x="63.623047"/>
       <use xlink:href="#DejaVuSans-30" x="127.246094"/>
      </g>
     </g>
    </g>
    <g id="ytick_5">
     <g id="line2d_11">
      <g>
       <use xlink:href="#m8e648f9926" x="57.6" y="140.847158" style="stroke: #000000; stroke-width: 0.8"/>
      </g>
     </g>
     <g id="text_12">
      <!-- 200 -->
      <g transform="translate(31.5125 144.646377) scale(0.1 -0.1)">
       <use xlink:href="#DejaVuSans-32"/>
       <use xlink:href="#DejaVuSans-30" x="63.623047"/>
       <use xlink:href="#DejaVuSans-30" x="127.246094"/>
      </g>
     </g>
    </g>
    <g id="ytick_6">
     <g id="line2d_12">
      <g>
       <use xlink:href="#m8e648f9926" x="57.6" y="99.162947" style="stroke: #000000; stroke-width: 0.8"/>
      </g>
     </g>
     <g id="text_13">
      <!-- 250 -->
      <g transform="translate(31.5125 102.962166) scale(0.1 -0.1)">
       <use xlink:href="#DejaVuSans-32"/>
       <use xlink:href="#DejaVuSans-35" x="63.623047"/>
       <use xlink:href="#DejaVuSans-30" x="127.246094"/>
      </g>
     </g>
    </g>
    <g id="ytick_7">
     <g id="line2d_13">
      <g>
       <use xlink:href="#m8e648f9926" x="57.6" y="57.478737" style="stroke: #000000; stroke-width: 0.8"/>
      </g>
     </g>
     <g id="text_14">
      <!-- 300 -->
      <g transform="translate(31.5125 61.277956) scale(0.1 -0.1)">
       <defs>
        <path id="DejaVuSans-33" d="M 2597 2516 
Q 3050 2419 3304 2112 
Q 3559 1806 3559 1356 
Q 3559 666 3084 287 
Q 2609 -91 1734 -91 
Q 1441 -91 1130 -33 
Q 819 25 488 141 
L 488 750 
Q 750 597 1062 519 
Q 1375 441 1716 441 
Q 2309 441 2620 675 
Q 2931 909 2931 1356 
Q 2931 1769 2642 2001 
Q 2353 2234 1838 2234 
L 1294 2234 
L 1294 2753 
L 1863 2753 
Q 2328 2753 2575 2939 
Q 2822 3125 2822 3475 
Q 2822 3834 2567 4026 
Q 2313 4219 1838 4219 
Q 1578 4219 1281 4162 
Q 984 4106 628 3988 
L 628 4550 
Q 988 4650 1302 4700 
Q 1616 4750 1894 4750 
Q 2613 4750 3031 4423 
Q 3450 4097 3450 3541 
Q 3450 3153 3228 2886 
Q 3006 2619 2597 2516 
z
" transform="scale(0.015625)"/>
       </defs>
       <use xlink:href="#DejaVuSans-33"/>
       <use xlink:href="#DejaVuSans-30" x="63.623047"/>
       <use xlink:href="#DejaVuSans-30" x="127.246094"/>
      </g>
     </g>
    </g>
    <g id="text_15">
     <!-- Size per Species -->
     <g transform="translate(25.432812 215.520969) rotate(-90) scale(0.1 -0.1)">
      <defs>
       <path id="DejaVuSans-53" d="M 3425 4513 
L 3425 3897 
Q 3066 4069 2747 4153 
Q 2428 4238 2131 4238 
Q 1616 4238 1336 4038 
Q 1056 3838 1056 3469 
Q 1056 3159 1242 3001 
Q 1428 2844 1947 2747 
L 2328 2669 
Q 3034 2534 3370 2195 
Q 3706 1856 3706 1288 
Q 3706 609 3251 259 
Q 2797 -91 1919 -91 
Q 1588 -91 1214 -16 
Q 841 59 441 206 
L 441 856 
Q 825 641 1194 531 
Q 1563 422 1919 422 
Q 2459 422 2753 634 
Q 3047 847 3047 1241 
Q 3047 1584 2836 1778 
Q 2625 1972 2144 2069 
L 1759 2144 
Q 1053 2284 737 2584 
Q 422 2884 422 3419 
Q 422 4038 858 4394 
Q 1294 4750 2059 4750 
Q 2388 4750 2728 4690 
Q 3069 4631 3425 4513 
z
" transform="scale(0.015625)"/>
       <path id="DejaVuSans-7a" d="M 353 3500 
L 3084 3500 
L 3084 2975 
L 922 459 
L 3084 459 
L 3084 0 
L 275 0 
L 275 525 
L 2438 3041 
L 353 3041 
L 353 3500 
z
" transform="scale(0.015625)"/>
       <path id="DejaVuSans-20" transform="scale(0.015625)"/>
       <path id="DejaVuSans-70" d="M 1159 525 
L 1159 -1331 
L 581 -1331 
L 581 3500 
L 1159 3500 
L 1159 2969 
Q 1341 3281 1617 3432 
Q 1894 3584 2278 3584 
Q 2916 3584 3314 3078 
Q 3713 2572 3713 1747 
Q 3713 922 3314 415 
Q 2916 -91 2278 -91 
Q 1894 -91 1617 61 
Q 1341 213 1159 525 
z
M 3116 1747 
Q 3116 2381 2855 2742 
Q 2594 3103 2138 3103 
Q 1681 3103 1420 2742 
Q 1159 2381 1159 1747 
Q 1159 1113 1420 752 
Q 1681 391 2138 391 
Q 2594 391 2855 752 
Q 3116 1113 3116 1747 
z
" transform="scale(0.015625)"/>
       <path id="DejaVuSans-63" d="M 3122 3366 
L 3122 2828 
Q 2878 2963 2633 3030 
Q 2388 3097 2138 3097 
Q 1578 3097 1268 2742 
Q 959 2388 959 1747 
Q 959 1106 1268 751 
Q 1578 397 2138 397 
Q 2388 397 2633 464 
Q 2878 531 3122 666 
L 3122 134 
Q 2881 22 2623 -34 
Q 2366 -91 2075 -91 
Q 1284 -91 818 406 
Q 353 903 353 1747 
Q 353 2603 823 3093 
Q 1294 3584 2113 3584 
Q 2378 3584 2631 3529 
Q 2884 3475 3122 3366 
z
" transform="scale(0.015625)"/>
      </defs>
      <use xlink:href="#DejaVuSans-53"/>
      <use xlink:href="#DejaVuSans-69" x="63.476562"/>
      <use xlink:href="#DejaVuSans-7a" x="91.259766"/>
      <use xlink:href="#DejaVuSans-65" x="143.75"/>
      <use xlink:href="#DejaVuSans-20" x="205.273438"/>
      <use xlink:href="#DejaVuSans-70" x="237.060547"/>
      <use xlink:href="#DejaVuSans-65" x="300.537109"/>
      <use xlink:href="#DejaVuSans-72" x="362.060547"/>
      <use xlink:href="#DejaVuSans-20" x="403.173828"/>
      <use xlink:href="#DejaVuSans-53" x="434.960938"/>
      <use xlink:href="#DejaVuSans-70" x="498.4375"/>
      <use xlink:href="#DejaVuSans-65" x="561.914062"/>
      <use xlink:href="#DejaVuSans-63" x="623.4375"/>
      <use xlink:href="#DejaVuSans-69" x="678.417969"/>
      <use xlink:href="#DejaVuSans-65" x="706.201172"/>
      <use xlink:href="#DejaVuSans-73" x="767.724609"/>
     </g>
    </g>
   </g>
   <g id="patch_3">
    <path d="M 57.6 307.584 
L 57.6 41.472 
" style="fill: none; stroke: #000000; stroke-width: 0.8; stroke-linejoin: miter; stroke-linecap: square"/>
   </g>
   <g id="patch_4">
    <path d="M 414.72 307.584 
L 414.72 41.472 
" style="fill: none; stroke: #000000; stroke-width: 0.8; stroke-linejoin: miter; stroke-linecap: square"/>
   </g>
   <g id="patch_5">
    <path d="M 57.6 307.584 
L 414.72 307.584 
" style="fill: none; stroke: #000000; stroke-width: 0.8; stroke-linejoin: miter; stroke-linecap: square"/>
   </g>
   <g id="patch_6">
    <path d="M 57.6 41.472 
L 414.72 41.472 
" style="fill: none; stroke: #000000; stroke-width: 0.8; stroke-linejoin: miter; stroke-linecap: square"/>
   </g>
   <g id="text_16">
    <!-- Speciation -->
    <g transform="translate(204.714375 35.472) scale(0.12 -0.12)">
     <use xlink:href="#DejaVuSans-53"/>
     <use xlink:href="#DejaVuSans-70" x="63.476562"/>
     <use xlink:href="#DejaVuSans-65" x="126.953125"/>
     <use xlink:href="#DejaVuSans-63" x="188.476562"/>
     <use xlink:href="#DejaVuSans-69" x="243.457031"/>
     <use xlink:href="#DejaVuSans-61" x="271.240234"/>
     <use xlink:href="#DejaVuSans-74" x="332.519531"/>
     <use xlink:href="#DejaVuSans-69" x="371.728516"/>
     <use xlink:href="#DejaVuSans-6f" x="399.511719"/>
     <use xlink:href="#DejaVuSans-6e" x="460.693359"/>
    </g>
   </g>
  </g>
 </g>
 <defs>
  <clipPath id="p3e224d756e">
   <rect x="57.6" y="41.472" width="357.12" height="266.112"/>
  </clipPath>
 </defs>
</svg>
