<?xml version="1.0" encoding="utf-8" standalone="no"?>
<!DOCTYPE svg PUBLIC "-//W3C//DTD SVG 1.1//EN"
  "http://www.w3.org/Graphics/SVG/1.1/DTD/svg11.dtd">
<svg xmlns:xlink="http://www.w3.org/1999/xlink" width="460.8pt" height="345.6pt" viewBox="0 0 460.8 345.6" xmlns="http://www.w3.org/2000/svg" version="1.1">
 <metadata>
  <rdf:RDF xmlns:dc="http://purl.org/dc/elements/1.1/" xmlns:cc="http://creativecommons.org/ns#" xmlns:rdf="http://www.w3.org/1999/02/22-rdf-syntax-ns#">
   <cc:Work>
    <dc:type rdf:resource="http://purl.org/dc/dcmitype/StillImage"/>
    <dc:date>2023-12-11T09:07:49.720918</dc:date>
    <dc:format>image/svg+xml</dc:format>
    <dc:creator>
     <cc:Agent>
      <dc:title>Matplotlib v3.8.0, https://matplotlib.org/</dc:title>
     </cc:Agent>
    </dc:creator>
   </cc:Work>
  </rdf:RDF>
 </metadata>
 <defs>
  <style type="text/css">*{stroke-linejoin: round; stroke-linecap: butt}</style>
 </defs>
 <g id="figure_1">
  <g id="patch_1">
   <path d="M 0 345.6 
L 460.8 345.6 
L 460.8 0 
L 0 0 
z
" style="fill: #ffffff"/>
  </g>
  <g id="axes_1">
   <g id="patch_2">
    <path d="M 57.6 307.584 
L 414.72 307.584 
L 414.72 41.472 
L 57.6 41.472 
z
" style="fill: #ffffff"/>
   </g>
   <g id="matplotlib.axis_1">
    <g id="xtick_1">
     <g id="line2d_1">
      <path d="M 73.832727 307.584 
L 73.832727 41.472 
" clip-path="url(#p07f6971251)" style="fill: none; stroke: #b0b0b0; stroke-width: 0.8; stroke-linecap: square"/>
     </g>
     <g id="line2d_2">
      <defs>
       <path id="m784ccc82dc" d="M 0 0 
L 0 3.5 
" style="stroke: #000000; stroke-width: 0.8"/>
      </defs>
      <g>
       <use xlink:href="#m784ccc82dc" x="73.832727" y="307.584" style="stroke: #000000; stroke-width: 0.8"/>
      </g>
     </g>
     <g id="text_1">
      <!-- 0 -->
      <g transform="translate(70.651477 322.182437) scale(0.1 -0.1)">
       <defs>
        <path id="DejaVuSans-30" d="M 2034 4250 
Q 1547 4250 1301 3770 
Q 1056 3291 1056 2328 
Q 1056 1369 1301 889 
Q 1547 409 2034 409 
Q 2525 409 2770 889 
Q 3016 1369 3016 2328 
Q 3016 3291 2770 3770 
Q 2525 4250 2034 4250 
z
M 2034 4750 
Q 2819 4750 3233 4129 
Q 3647 3509 3647 2328 
Q 3647 1150 3233 529 
Q 2819 -91 2034 -91 
Q 1250 -91 836 529 
Q 422 1150 422 2328 
Q 422 3509 836 4129 
Q 1250 4750 2034 4750 
z
" transform="scale(0.015625)"/>
       </defs>
       <use xlink:href="#DejaVuSans-30"/>
      </g>
     </g>
    </g>
    <g id="xtick_2">
     <g id="line2d_3">
      <path d="M 139.419504 307.584 
L 139.419504 41.472 
" clip-path="url(#p07f6971251)" style="fill: none; stroke: #b0b0b0; stroke-width: 0.8; stroke-linecap: square"/>
     </g>
     <g id="line2d_4">
      <g>
       <use xlink:href="#m784ccc82dc" x="139.419504" y="307.584" style="stroke: #000000; stroke-width: 0.8"/>
      </g>
     </g>
     <g id="text_2">
      <!-- 20 -->
      <g transform="translate(133.057004 322.182437) scale(0.1 -0.1)">
       <defs>
        <path id="DejaVuSans-32" d="M 1228 531 
L 3431 531 
L 3431 0 
L 469 0 
L 469 531 
Q 828 903 1448 1529 
Q 2069 2156 2228 2338 
Q 2531 2678 2651 2914 
Q 2772 3150 2772 3378 
Q 2772 3750 2511 3984 
Q 2250 4219 1831 4219 
Q 1534 4219 1204 4116 
Q 875 4013 500 3803 
L 500 4441 
Q 881 4594 1212 4672 
Q 1544 4750 1819 4750 
Q 2544 4750 2975 4387 
Q 3406 4025 3406 3419 
Q 3406 3131 3298 2873 
Q 3191 2616 2906 2266 
Q 2828 2175 2409 1742 
Q 1991 1309 1228 531 
z
" transform="scale(0.015625)"/>
       </defs>
       <use xlink:href="#DejaVuSans-32"/>
       <use xlink:href="#DejaVuSans-30" x="63.623047"/>
      </g>
     </g>
    </g>
    <g id="xtick_3">
     <g id="line2d_5">
      <path d="M 205.006281 307.584 
L 205.006281 41.472 
" clip-path="url(#p07f6971251)" style="fill: none; stroke: #b0b0b0; stroke-width: 0.8; stroke-linecap: square"/>
     </g>
     <g id="line2d_6">
      <g>
       <use xlink:href="#m784ccc82dc" x="205.006281" y="307.584" style="stroke: #000000; stroke-width: 0.8"/>
      </g>
     </g>
     <g id="text_3">
      <!-- 40 -->
      <g transform="translate(198.643781 322.182437) scale(0.1 -0.1)">
       <defs>
        <path id="DejaVuSans-34" d="M 2419 4116 
L 825 1625 
L 2419 1625 
L 2419 4116 
z
M 2253 4666 
L 3047 4666 
L 3047 1625 
L 3713 1625 
L 3713 1100 
L 3047 1100 
L 3047 0 
L 2419 0 
L 2419 1100 
L 313 1100 
L 313 1709 
L 2253 4666 
z
" transform="scale(0.015625)"/>
       </defs>
       <use xlink:href="#DejaVuSans-34"/>
       <use xlink:href="#DejaVuSans-30" x="63.623047"/>
      </g>
     </g>
    </g>
    <g id="xtick_4">
     <g id="line2d_7">
      <path d="M 270.593058 307.584 
L 270.593058 41.472 
" clip-path="url(#p07f6971251)" style="fill: none; stroke: #b0b0b0; stroke-width: 0.8; stroke-linecap: square"/>
     </g>
     <g id="line2d_8">
      <g>
       <use xlink:href="#m784ccc82dc" x="270.593058" y="307.584" style="stroke: #000000; stroke-width: 0.8"/>
      </g>
     </g>
     <g id="text_4">
      <!-- 60 -->
      <g transform="translate(264.230558 322.182437) scale(0.1 -0.1)">
       <defs>
        <path id="DejaVuSans-36" d="M 2113 2584 
Q 1688 2584 1439 2293 
Q 1191 2003 1191 1497 
Q 1191 994 1439 701 
Q 1688 409 2113 409 
Q 2538 409 2786 701 
Q 3034 994 3034 1497 
Q 3034 2003 2786 2293 
Q 2538 2584 2113 2584 
z
M 3366 4563 
L 3366 3988 
Q 3128 4100 2886 4159 
Q 2644 4219 2406 4219 
Q 1781 4219 1451 3797 
Q 1122 3375 1075 2522 
Q 1259 2794 1537 2939 
Q 1816 3084 2150 3084 
Q 2853 3084 3261 2657 
Q 3669 2231 3669 1497 
Q 3669 778 3244 343 
Q 2819 -91 2113 -91 
Q 1303 -91 875 529 
Q 447 1150 447 2328 
Q 447 3434 972 4092 
Q 1497 4750 2381 4750 
Q 2619 4750 2861 4703 
Q 3103 4656 3366 4563 
z
" transform="scale(0.015625)"/>
       </defs>
       <use xlink:href="#DejaVuSans-36"/>
       <use xlink:href="#DejaVuSans-30" x="63.623047"/>
      </g>
     </g>
    </g>
    <g id="xtick_5">
     <g id="line2d_9">
      <path d="M 336.179835 307.584 
L 336.179835 41.472 
" clip-path="url(#p07f6971251)" style="fill: none; stroke: #b0b0b0; stroke-width: 0.8; stroke-linecap: square"/>
     </g>
     <g id="line2d_10">
      <g>
       <use xlink:href="#m784ccc82dc" x="336.179835" y="307.584" style="stroke: #000000; stroke-width: 0.8"/>
      </g>
     </g>
     <g id="text_5">
      <!-- 80 -->
      <g transform="translate(329.817335 322.182437) scale(0.1 -0.1)">
       <defs>
        <path id="DejaVuSans-38" d="M 2034 2216 
Q 1584 2216 1326 1975 
Q 1069 1734 1069 1313 
Q 1069 891 1326 650 
Q 1584 409 2034 409 
Q 2484 409 2743 651 
Q 3003 894 3003 1313 
Q 3003 1734 2745 1975 
Q 2488 2216 2034 2216 
z
M 1403 2484 
Q 997 2584 770 2862 
Q 544 3141 544 3541 
Q 544 4100 942 4425 
Q 1341 4750 2034 4750 
Q 2731 4750 3128 4425 
Q 3525 4100 3525 3541 
Q 3525 3141 3298 2862 
Q 3072 2584 2669 2484 
Q 3125 2378 3379 2068 
Q 3634 1759 3634 1313 
Q 3634 634 3220 271 
Q 2806 -91 2034 -91 
Q 1263 -91 848 271 
Q 434 634 434 1313 
Q 434 1759 690 2068 
Q 947 2378 1403 2484 
z
M 1172 3481 
Q 1172 3119 1398 2916 
Q 1625 2713 2034 2713 
Q 2441 2713 2670 2916 
Q 2900 3119 2900 3481 
Q 2900 3844 2670 4047 
Q 2441 4250 2034 4250 
Q 1625 4250 1398 4047 
Q 1172 3844 1172 3481 
z
" transform="scale(0.015625)"/>
       </defs>
       <use xlink:href="#DejaVuSans-38"/>
       <use xlink:href="#DejaVuSans-30" x="63.623047"/>
      </g>
     </g>
    </g>
    <g id="xtick_6">
     <g id="line2d_11">
      <path d="M 401.766612 307.584 
L 401.766612 41.472 
" clip-path="url(#p07f6971251)" style="fill: none; stroke: #b0b0b0; stroke-width: 0.8; stroke-linecap: square"/>
     </g>
     <g id="line2d_12">
      <g>
       <use xlink:href="#m784ccc82dc" x="401.766612" y="307.584" style="stroke: #000000; stroke-width: 0.8"/>
      </g>
     </g>
     <g id="text_6">
      <!-- 100 -->
      <g transform="translate(392.222862 322.182437) scale(0.1 -0.1)">
       <defs>
        <path id="DejaVuSans-31" d="M 794 531 
L 1825 531 
L 1825 4091 
L 703 3866 
L 703 4441 
L 1819 4666 
L 2450 4666 
L 2450 531 
L 3481 531 
L 3481 0 
L 794 0 
L 794 531 
z
" transform="scale(0.015625)"/>
       </defs>
       <use xlink:href="#DejaVuSans-31"/>
       <use xlink:href="#DejaVuSans-30" x="63.623047"/>
       <use xlink:href="#DejaVuSans-30" x="127.246094"/>
      </g>
     </g>
    </g>
    <g id="text_7">
     <!-- Generations -->
     <g transform="translate(205.662344 335.860562) scale(0.1 -0.1)">
      <defs>
       <path id="DejaVuSans-47" d="M 3809 666 
L 3809 1919 
L 2778 1919 
L 2778 2438 
L 4434 2438 
L 4434 434 
Q 4069 175 3628 42 
Q 3188 -91 2688 -91 
Q 1594 -91 976 548 
Q 359 1188 359 2328 
Q 359 3472 976 4111 
Q 1594 4750 2688 4750 
Q 3144 4750 3555 4637 
Q 3966 4525 4313 4306 
L 4313 3634 
Q 3963 3931 3569 4081 
Q 3175 4231 2741 4231 
Q 1884 4231 1454 3753 
Q 1025 3275 1025 2328 
Q 1025 1384 1454 906 
Q 1884 428 2741 428 
Q 3075 428 3337 486 
Q 3600 544 3809 666 
z
" transform="scale(0.015625)"/>
       <path id="DejaVuSans-65" d="M 3597 1894 
L 3597 1613 
L 953 1613 
Q 991 1019 1311 708 
Q 1631 397 2203 397 
Q 2534 397 2845 478 
Q 3156 559 3463 722 
L 3463 178 
Q 3153 47 2828 -22 
Q 2503 -91 2169 -91 
Q 1331 -91 842 396 
Q 353 884 353 1716 
Q 353 2575 817 3079 
Q 1281 3584 2069 3584 
Q 2775 3584 3186 3129 
Q 3597 2675 3597 1894 
z
M 3022 2063 
Q 3016 2534 2758 2815 
Q 2500 3097 2075 3097 
Q 1594 3097 1305 2825 
Q 1016 2553 972 2059 
L 3022 2063 
z
" transform="scale(0.015625)"/>
       <path id="DejaVuSans-6e" d="M 3513 2113 
L 3513 0 
L 2938 0 
L 2938 2094 
Q 2938 2591 2744 2837 
Q 2550 3084 2163 3084 
Q 1697 3084 1428 2787 
Q 1159 2491 1159 1978 
L 1159 0 
L 581 0 
L 581 3500 
L 1159 3500 
L 1159 2956 
Q 1366 3272 1645 3428 
Q 1925 3584 2291 3584 
Q 2894 3584 3203 3211 
Q 3513 2838 3513 2113 
z
" transform="scale(0.015625)"/>
       <path id="DejaVuSans-72" d="M 2631 2963 
Q 2534 3019 2420 3045 
Q 2306 3072 2169 3072 
Q 1681 3072 1420 2755 
Q 1159 2438 1159 1844 
L 1159 0 
L 581 0 
L 581 3500 
L 1159 3500 
L 1159 2956 
Q 1341 3275 1631 3429 
Q 1922 3584 2338 3584 
Q 2397 3584 2469 3576 
Q 2541 3569 2628 3553 
L 2631 2963 
z
" transform="scale(0.015625)"/>
       <path id="DejaVuSans-61" d="M 2194 1759 
Q 1497 1759 1228 1600 
Q 959 1441 959 1056 
Q 959 750 1161 570 
Q 1363 391 1709 391 
Q 2188 391 2477 730 
Q 2766 1069 2766 1631 
L 2766 1759 
L 2194 1759 
z
M 3341 1997 
L 3341 0 
L 2766 0 
L 2766 531 
Q 2569 213 2275 61 
Q 1981 -91 1556 -91 
Q 1019 -91 701 211 
Q 384 513 384 1019 
Q 384 1609 779 1909 
Q 1175 2209 1959 2209 
L 2766 2209 
L 2766 2266 
Q 2766 2663 2505 2880 
Q 2244 3097 1772 3097 
Q 1472 3097 1187 3025 
Q 903 2953 641 2809 
L 641 3341 
Q 956 3463 1253 3523 
Q 1550 3584 1831 3584 
Q 2591 3584 2966 3190 
Q 3341 2797 3341 1997 
z
" transform="scale(0.015625)"/>
       <path id="DejaVuSans-74" d="M 1172 4494 
L 1172 3500 
L 2356 3500 
L 2356 3053 
L 1172 3053 
L 1172 1153 
Q 1172 725 1289 603 
Q 1406 481 1766 481 
L 2356 481 
L 2356 0 
L 1766 0 
Q 1100 0 847 248 
Q 594 497 594 1153 
L 594 3053 
L 172 3053 
L 172 3500 
L 594 3500 
L 594 4494 
L 1172 4494 
z
" transform="scale(0.015625)"/>
       <path id="DejaVuSans-69" d="M 603 3500 
L 1178 3500 
L 1178 0 
L 603 0 
L 603 3500 
z
M 603 4863 
L 1178 4863 
L 1178 4134 
L 603 4134 
L 603 4863 
z
" transform="scale(0.015625)"/>
       <path id="DejaVuSans-6f" d="M 1959 3097 
Q 1497 3097 1228 2736 
Q 959 2375 959 1747 
Q 959 1119 1226 758 
Q 1494 397 1959 397 
Q 2419 397 2687 759 
Q 2956 1122 2956 1747 
Q 2956 2369 2687 2733 
Q 2419 3097 1959 3097 
z
M 1959 3584 
Q 2709 3584 3137 3096 
Q 3566 2609 3566 1747 
Q 3566 888 3137 398 
Q 2709 -91 1959 -91 
Q 1206 -91 779 398 
Q 353 888 353 1747 
Q 353 2609 779 3096 
Q 1206 3584 1959 3584 
z
" transform="scale(0.015625)"/>
       <path id="DejaVuSans-73" d="M 2834 3397 
L 2834 2853 
Q 2591 2978 2328 3040 
Q 2066 3103 1784 3103 
Q 1356 3103 1142 2972 
Q 928 2841 928 2578 
Q 928 2378 1081 2264 
Q 1234 2150 1697 2047 
L 1894 2003 
Q 2506 1872 2764 1633 
Q 3022 1394 3022 966 
Q 3022 478 2636 193 
Q 2250 -91 1575 -91 
Q 1294 -91 989 -36 
Q 684 19 347 128 
L 347 722 
Q 666 556 975 473 
Q 1284 391 1588 391 
Q 1994 391 2212 530 
Q 2431 669 2431 922 
Q 2431 1156 2273 1281 
Q 2116 1406 1581 1522 
L 1381 1569 
Q 847 1681 609 1914 
Q 372 2147 372 2553 
Q 372 3047 722 3315 
Q 1072 3584 1716 3584 
Q 2034 3584 2315 3537 
Q 2597 3491 2834 3397 
z
" transform="scale(0.015625)"/>
      </defs>
      <use xlink:href="#DejaVuSans-47"/>
      <use xlink:href="#DejaVuSans-65" x="77.490234"/>
      <use xlink:href="#DejaVuSans-6e" x="139.013672"/>
      <use xlink:href="#DejaVuSans-65" x="202.392578"/>
      <use xlink:href="#DejaVuSans-72" x="263.916016"/>
      <use xlink:href="#DejaVuSans-61" x="305.029297"/>
      <use xlink:href="#DejaVuSans-74" x="366.308594"/>
      <use xlink:href="#DejaVuSans-69" x="405.517578"/>
      <use xlink:href="#DejaVuSans-6f" x="433.300781"/>
      <use xlink:href="#DejaVuSans-6e" x="494.482422"/>
      <use xlink:href="#DejaVuSans-73" x="557.861328"/>
     </g>
    </g>
   </g>
   <g id="matplotlib.axis_2">
    <g id="ytick_1">
     <g id="line2d_13">
      <path d="M 57.6 285.217192 
L 414.72 285.217192 
" clip-path="url(#p07f6971251)" style="fill: none; stroke: #b0b0b0; stroke-width: 0.8; stroke-linecap: square"/>
     </g>
     <g id="line2d_14">
      <defs>
       <path id="m681e8cbdb7" d="M 0 0 
L -3.5 0 
" style="stroke: #000000; stroke-width: 0.8"/>
      </defs>
      <g>
       <use xlink:href="#m681e8cbdb7" x="57.6" y="285.217192" style="stroke: #000000; stroke-width: 0.8"/>
      </g>
     </g>
     <g id="text_8">
      <!-- −0.2 -->
      <g transform="translate(26.317187 289.01641) scale(0.1 -0.1)">
       <defs>
        <path id="DejaVuSans-2212" d="M 678 2272 
L 4684 2272 
L 4684 1741 
L 678 1741 
L 678 2272 
z
" transform="scale(0.015625)"/>
        <path id="DejaVuSans-2e" d="M 684 794 
L 1344 794 
L 1344 0 
L 684 0 
L 684 794 
z
" transform="scale(0.015625)"/>
       </defs>
       <use xlink:href="#DejaVuSans-2212"/>
       <use xlink:href="#DejaVuSans-30" x="83.789062"/>
       <use xlink:href="#DejaVuSans-2e" x="147.412109"/>
       <use xlink:href="#DejaVuSans-32" x="179.199219"/>
      </g>
     </g>
    </g>
    <g id="ytick_2">
     <g id="line2d_15">
      <path d="M 57.6 254.587264 
L 414.72 254.587264 
" clip-path="url(#p07f6971251)" style="fill: none; stroke: #b0b0b0; stroke-width: 0.8; stroke-linecap: square"/>
     </g>
     <g id="line2d_16">
      <g>
       <use xlink:href="#m681e8cbdb7" x="57.6" y="254.587264" style="stroke: #000000; stroke-width: 0.8"/>
      </g>
     </g>
     <g id="text_9">
      <!-- 0.0 -->
      <g transform="translate(34.696875 258.386483) scale(0.1 -0.1)">
       <use xlink:href="#DejaVuSans-30"/>
       <use xlink:href="#DejaVuSans-2e" x="63.623047"/>
       <use xlink:href="#DejaVuSans-30" x="95.410156"/>
      </g>
     </g>
    </g>
    <g id="ytick_3">
     <g id="line2d_17">
      <path d="M 57.6 223.957337 
L 414.72 223.957337 
" clip-path="url(#p07f6971251)" style="fill: none; stroke: #b0b0b0; stroke-width: 0.8; stroke-linecap: square"/>
     </g>
     <g id="line2d_18">
      <g>
       <use xlink:href="#m681e8cbdb7" x="57.6" y="223.957337" style="stroke: #000000; stroke-width: 0.8"/>
      </g>
     </g>
     <g id="text_10">
      <!-- 0.2 -->
      <g transform="translate(34.696875 227.756555) scale(0.1 -0.1)">
       <use xlink:href="#DejaVuSans-30"/>
       <use xlink:href="#DejaVuSans-2e" x="63.623047"/>
       <use xlink:href="#DejaVuSans-32" x="95.410156"/>
      </g>
     </g>
    </g>
    <g id="ytick_4">
     <g id="line2d_19">
      <path d="M 57.6 193.327409 
L 414.72 193.327409 
" clip-path="url(#p07f6971251)" style="fill: none; stroke: #b0b0b0; stroke-width: 0.8; stroke-linecap: square"/>
     </g>
     <g id="line2d_20">
      <g>
       <use xlink:href="#m681e8cbdb7" x="57.6" y="193.327409" style="stroke: #000000; stroke-width: 0.8"/>
      </g>
     </g>
     <g id="text_11">
      <!-- 0.4 -->
      <g transform="translate(34.696875 197.126628) scale(0.1 -0.1)">
       <use xlink:href="#DejaVuSans-30"/>
       <use xlink:href="#DejaVuSans-2e" x="63.623047"/>
       <use xlink:href="#DejaVuSans-34" x="95.410156"/>
      </g>
     </g>
    </g>
    <g id="ytick_5">
     <g id="line2d_21">
      <path d="M 57.6 162.697482 
L 414.72 162.697482 
" clip-path="url(#p07f6971251)" style="fill: none; stroke: #b0b0b0; stroke-width: 0.8; stroke-linecap: square"/>
     </g>
     <g id="line2d_22">
      <g>
       <use xlink:href="#m681e8cbdb7" x="57.6" y="162.697482" style="stroke: #000000; stroke-width: 0.8"/>
      </g>
     </g>
     <g id="text_12">
      <!-- 0.6 -->
      <g transform="translate(34.696875 166.4967) scale(0.1 -0.1)">
       <use xlink:href="#DejaVuSans-30"/>
       <use xlink:href="#DejaVuSans-2e" x="63.623047"/>
       <use xlink:href="#DejaVuSans-36" x="95.410156"/>
      </g>
     </g>
    </g>
    <g id="ytick_6">
     <g id="line2d_23">
      <path d="M 57.6 132.067554 
L 414.72 132.067554 
" clip-path="url(#p07f6971251)" style="fill: none; stroke: #b0b0b0; stroke-width: 0.8; stroke-linecap: square"/>
     </g>
     <g id="line2d_24">
      <g>
       <use xlink:href="#m681e8cbdb7" x="57.6" y="132.067554" style="stroke: #000000; stroke-width: 0.8"/>
      </g>
     </g>
     <g id="text_13">
      <!-- 0.8 -->
      <g transform="translate(34.696875 135.866773) scale(0.1 -0.1)">
       <use xlink:href="#DejaVuSans-30"/>
       <use xlink:href="#DejaVuSans-2e" x="63.623047"/>
       <use xlink:href="#DejaVuSans-38" x="95.410156"/>
      </g>
     </g>
    </g>
    <g id="ytick_7">
     <g id="line2d_25">
      <path d="M 57.6 101.437626 
L 414.72 101.437626 
" clip-path="url(#p07f6971251)" style="fill: none; stroke: #b0b0b0; stroke-width: 0.8; stroke-linecap: square"/>
     </g>
     <g id="line2d_26">
      <g>
       <use xlink:href="#m681e8cbdb7" x="57.6" y="101.437626" style="stroke: #000000; stroke-width: 0.8"/>
      </g>
     </g>
     <g id="text_14">
      <!-- 1.0 -->
      <g transform="translate(34.696875 105.236845) scale(0.1 -0.1)">
       <use xlink:href="#DejaVuSans-31"/>
       <use xlink:href="#DejaVuSans-2e" x="63.623047"/>
       <use xlink:href="#DejaVuSans-30" x="95.410156"/>
      </g>
     </g>
    </g>
    <g id="ytick_8">
     <g id="line2d_27">
      <path d="M 57.6 70.807699 
L 414.72 70.807699 
" clip-path="url(#p07f6971251)" style="fill: none; stroke: #b0b0b0; stroke-width: 0.8; stroke-linecap: square"/>
     </g>
     <g id="line2d_28">
      <g>
       <use xlink:href="#m681e8cbdb7" x="57.6" y="70.807699" style="stroke: #000000; stroke-width: 0.8"/>
      </g>
     </g>
     <g id="text_15">
      <!-- 1.2 -->
      <g transform="translate(34.696875 74.606918) scale(0.1 -0.1)">
       <use xlink:href="#DejaVuSans-31"/>
       <use xlink:href="#DejaVuSans-2e" x="63.623047"/>
       <use xlink:href="#DejaVuSans-32" x="95.410156"/>
      </g>
     </g>
    </g>
    <g id="text_16">
     <!-- Fitness -->
     <g transform="translate(20.2375 191.845187) rotate(-90) scale(0.1 -0.1)">
      <defs>
       <path id="DejaVuSans-46" d="M 628 4666 
L 3309 4666 
L 3309 4134 
L 1259 4134 
L 1259 2759 
L 3109 2759 
L 3109 2228 
L 1259 2228 
L 1259 0 
L 628 0 
L 628 4666 
z
" transform="scale(0.015625)"/>
      </defs>
      <use xlink:href="#DejaVuSans-46"/>
      <use xlink:href="#DejaVuSans-69" x="50.269531"/>
      <use xlink:href="#DejaVuSans-74" x="78.052734"/>
      <use xlink:href="#DejaVuSans-6e" x="117.261719"/>
      <use xlink:href="#DejaVuSans-65" x="180.640625"/>
      <use xlink:href="#DejaVuSans-73" x="242.164062"/>
      <use xlink:href="#DejaVuSans-73" x="294.263672"/>
     </g>
    </g>
   </g>
   <g id="line2d_29">
    <path d="M 73.832727 254.193445 
L 77.112066 253.372844 
L 80.391405 252.707256 
L 83.670744 252.871836 
L 86.950083 251.636125 
L 90.229421 250.320066 
L 93.50876 249.251393 
L 96.788099 247.97897 
L 100.067438 249.299421 
L 103.346777 246.028505 
L 106.626116 246.674014 
L 109.905455 243.997801 
L 113.184793 243.630074 
L 116.464132 241.127376 
L 119.743471 241.00486 
L 123.02281 240.189668 
L 126.302149 239.990475 
L 129.581488 238.312299 
L 132.860826 236.646823 
L 136.140165 234.491304 
L 139.419504 236.14814 
L 142.698843 235.088029 
L 145.978182 234.894519 
L 149.257521 238.899988 
L 152.53686 236.891269 
L 155.816198 235.428663 
L 159.095537 235.787737 
L 162.374876 234.916262 
L 165.654215 235.65675 
L 168.933554 232.652182 
L 172.212893 231.373026 
L 175.492231 230.097535 
L 178.77157 230.314105 
L 182.050909 237.146843 
L 185.330248 235.961638 
L 188.609587 232.222169 
L 191.888926 234.68631 
L 195.168264 231.320588 
L 198.447603 233.290728 
L 201.726942 228.96453 
L 205.006281 232.536995 
L 208.28562 233.810894 
L 211.564959 231.337923 
L 214.844298 230.487206 
L 218.123636 228.763365 
L 221.402975 229.550802 
L 224.682314 227.065653 
L 227.961653 228.334456 
L 231.240992 228.535443 
L 234.520331 228.14688 
L 237.799669 226.037726 
L 241.079008 231.401129 
L 244.358347 226.576786 
L 247.637686 232.667917 
L 250.917025 230.888398 
L 254.196364 234.908718 
L 257.475702 242.819568 
L 260.755041 237.757543 
L 264.03438 237.883326 
L 267.313719 239.026549 
L 270.593058 242.449804 
L 273.872397 244.04338 
L 277.151736 244.263214 
L 280.431074 243.317933 
L 283.710413 243.940612 
L 286.989752 245.820351 
L 290.269091 242.079108 
L 293.54843 244.163454 
L 296.827769 242.846579 
L 300.107107 240.234193 
L 303.386446 241.750898 
L 306.665785 240.199834 
L 309.945124 239.034062 
L 313.224463 242.386466 
L 316.503802 241.550265 
L 319.78314 241.405466 
L 323.062479 242.132003 
L 326.341818 239.628044 
L 329.621157 241.354203 
L 332.900496 246.060937 
L 336.179835 243.004721 
L 339.459174 243.543453 
L 342.738512 245.531077 
L 346.017851 242.957807 
L 349.29719 247.336593 
L 352.576529 244.474694 
L 355.855868 247.199554 
L 359.135207 242.194499 
L 362.414545 246.744009 
L 365.693884 244.374144 
L 368.973223 244.207384 
L 372.252562 243.761729 
L 375.531901 248.840205 
L 378.81124 243.618247 
L 382.090579 242.585226 
L 385.369917 242.183994 
L 388.649256 245.924856 
L 391.928595 241.942322 
L 395.207934 245.165169 
L 398.487273 244.920441 
" clip-path="url(#p07f6971251)" style="fill: none; stroke: #0000ff; stroke-width: 1.5; stroke-linecap: square"/>
   </g>
   <g id="line2d_30">
    <path d="M 73.832727 261.430593 
L 77.112066 263.70551 
L 80.391405 264.559044 
L 83.670744 266.427399 
L 86.950083 267.443109 
L 90.229421 268.75134 
L 93.50876 267.27279 
L 96.788099 270.039092 
L 100.067438 274.386442 
L 103.346777 268.665387 
L 106.626116 271.649862 
L 109.905455 271.735385 
L 113.184793 273.773227 
L 116.464132 270.842168 
L 119.743471 272.81052 
L 123.02281 275.044189 
L 126.302149 276.280612 
L 129.581488 271.659194 
L 132.860826 272.015873 
L 136.140165 270.017392 
L 139.419504 274.359556 
L 142.698843 273.370194 
L 145.978182 273.308893 
L 149.257521 280.857095 
L 152.53686 277.025681 
L 155.816198 277.258983 
L 159.095537 278.982218 
L 162.374876 276.936388 
L 165.654215 278.843717 
L 168.933554 275.452517 
L 172.212893 276.593439 
L 175.492231 274.447258 
L 178.77157 278.17282 
L 182.050909 284.924898 
L 185.330248 284.087743 
L 188.609587 279.809214 
L 191.888926 284.614449 
L 195.168264 278.13999 
L 198.447603 282.538316 
L 201.726942 278.833921 
L 205.006281 284.353725 
L 208.28562 283.666455 
L 211.564959 280.535125 
L 214.844298 279.632645 
L 218.123636 279.156453 
L 221.402975 282.723573 
L 224.682314 278.81253 
L 227.961653 281.138577 
L 231.240992 282.260731 
L 234.520331 282.818889 
L 237.799669 280.335752 
L 241.079008 285.462129 
L 244.358347 280.207391 
L 247.637686 284.562722 
L 250.917025 285.061702 
L 254.196364 286.917794 
L 257.475702 292.916917 
L 260.755041 284.931527 
L 264.03438 289.519156 
L 267.313719 290.434397 
L 270.593058 289.181683 
L 273.872397 288.721277 
L 277.151736 288.683157 
L 280.431074 289.906929 
L 283.710413 287.090882 
L 286.989752 290.066423 
L 290.269091 290.301924 
L 293.54843 292.021317 
L 296.827769 289.179534 
L 300.107107 287.493702 
L 303.386446 287.49 
L 306.665785 288.203683 
L 309.945124 285.438464 
L 313.224463 291.602663 
L 316.503802 290.794342 
L 319.78314 289.218895 
L 323.062479 292.676411 
L 326.341818 287.433993 
L 329.621157 289.703382 
L 332.900496 291.70071 
L 336.179835 285.304942 
L 339.459174 288.804266 
L 342.738512 291.399808 
L 346.017851 287.270159 
L 349.29719 292.131792 
L 352.576529 287.686561 
L 355.855868 291.183086 
L 359.135207 287.308543 
L 362.414545 291.65983 
L 365.693884 291.747365 
L 368.973223 291.082519 
L 372.252562 287.702808 
L 375.531901 295.488 
L 378.81124 288.812727 
L 382.090579 288.056134 
L 385.369917 287.604513 
L 388.649256 290.835789 
L 391.928595 286.129653 
L 395.207934 291.322394 
L 398.487273 290.937456 
" clip-path="url(#p07f6971251)" style="fill: none; stroke-dasharray: 9.6,2.4,1.5,2.4; stroke-dashoffset: 0; stroke: #008000; stroke-width: 1.5"/>
   </g>
   <g id="line2d_31">
    <path d="M 73.832727 246.956297 
L 77.112066 243.040178 
L 80.391405 240.855468 
L 83.670744 239.316274 
L 86.950083 235.829142 
L 90.229421 231.888793 
L 93.50876 231.229996 
L 96.788099 225.918848 
L 100.067438 224.212401 
L 103.346777 223.391623 
L 106.626116 221.698166 
L 109.905455 216.260216 
L 113.184793 213.486922 
L 116.464132 211.412583 
L 119.743471 209.1992 
L 123.02281 205.335146 
L 126.302149 203.700339 
L 129.581488 204.965404 
L 132.860826 201.277772 
L 136.140165 198.965217 
L 139.419504 197.936724 
L 142.698843 196.805864 
L 145.978182 196.480144 
L 149.257521 196.942881 
L 152.53686 196.756857 
L 155.816198 193.598343 
L 159.095537 192.593255 
L 162.374876 192.896135 
L 165.654215 192.469784 
L 168.933554 189.851847 
L 172.212893 186.152612 
L 175.492231 185.747813 
L 178.77157 182.455389 
L 182.050909 189.368788 
L 185.330248 187.835532 
L 188.609587 184.635124 
L 191.888926 184.758172 
L 195.168264 184.501186 
L 198.447603 184.04314 
L 201.726942 179.095139 
L 205.006281 180.720265 
L 208.28562 183.955334 
L 211.564959 182.140722 
L 214.844298 181.341766 
L 218.123636 178.370277 
L 221.402975 176.378031 
L 224.682314 175.318776 
L 227.961653 175.530335 
L 231.240992 174.810154 
L 234.520331 173.474871 
L 237.799669 171.7397 
L 241.079008 177.340129 
L 244.358347 172.94618 
L 247.637686 180.773112 
L 250.917025 176.715094 
L 254.196364 182.899642 
L 257.475702 192.722218 
L 260.755041 190.583559 
L 264.03438 186.247497 
L 267.313719 187.6187 
L 270.593058 195.717925 
L 273.872397 199.365484 
L 277.151736 199.843271 
L 280.431074 196.728937 
L 283.710413 200.790342 
L 286.989752 201.574278 
L 290.269091 193.856293 
L 293.54843 196.305591 
L 296.827769 196.513624 
L 300.107107 192.974684 
L 303.386446 196.011796 
L 306.665785 192.195985 
L 309.945124 192.629661 
L 313.224463 193.17027 
L 316.503802 192.306189 
L 319.78314 193.592038 
L 323.062479 191.587594 
L 326.341818 191.822094 
L 329.621157 193.005024 
L 332.900496 200.421164 
L 336.179835 200.7045 
L 339.459174 198.28264 
L 342.738512 199.662345 
L 346.017851 198.645454 
L 349.29719 202.541395 
L 352.576529 201.262827 
L 355.855868 203.216022 
L 359.135207 197.080455 
L 362.414545 201.828188 
L 365.693884 197.000923 
L 368.973223 197.332249 
L 372.252562 199.82065 
L 375.531901 202.192409 
L 378.81124 198.423766 
L 382.090579 197.114319 
L 385.369917 196.763475 
L 388.649256 201.013924 
L 391.928595 197.754991 
L 395.207934 199.007945 
L 398.487273 198.903426 
" clip-path="url(#p07f6971251)" style="fill: none; stroke-dasharray: 9.6,2.4,1.5,2.4; stroke-dashoffset: 0; stroke: #008000; stroke-width: 1.5"/>
   </g>
   <g id="line2d_32">
    <path d="M 73.832727 208.88229 
L 77.112066 207.721546 
L 80.391405 182.215575 
L 83.670744 182.215575 
L 86.950083 179.165483 
L 90.229421 137.920739 
L 93.50876 137.920739 
L 96.788099 137.920739 
L 100.067438 137.920739 
L 103.346777 137.920739 
L 106.626116 137.920739 
L 109.905455 137.920739 
L 113.184793 68.83907 
L 116.464132 68.83907 
L 119.743471 68.83907 
L 123.02281 68.83907 
L 126.302149 68.83907 
L 129.581488 68.83907 
L 132.860826 68.83907 
L 136.140165 68.83907 
L 139.419504 68.83907 
L 142.698843 68.83907 
L 145.978182 68.83907 
L 149.257521 68.83907 
L 152.53686 68.83907 
L 155.816198 68.83907 
L 159.095537 68.83907 
L 162.374876 68.83907 
L 165.654215 68.83907 
L 168.933554 68.83907 
L 172.212893 68.83907 
L 175.492231 68.83907 
L 178.77157 53.568 
L 182.050909 53.568 
L 185.330248 53.568 
L 188.609587 53.568 
L 191.888926 53.568 
L 195.168264 53.568 
L 198.447603 53.568 
L 201.726942 53.568 
L 205.006281 53.568 
L 208.28562 53.568 
L 211.564959 53.568 
L 214.844298 53.568 
L 218.123636 53.568 
L 221.402975 53.568 
L 224.682314 53.568 
L 227.961653 53.568 
L 231.240992 53.568 
L 234.520331 53.568 
L 237.799669 53.568 
L 241.079008 53.568 
L 244.358347 53.568 
L 247.637686 53.568 
L 250.917025 53.568 
L 254.196364 53.568 
L 257.475702 53.568 
L 260.755041 53.568 
L 264.03438 53.568 
L 267.313719 53.568 
L 270.593058 53.568 
L 273.872397 53.568 
L 277.151736 53.568 
L 280.431074 53.568 
L 283.710413 53.568 
L 286.989752 53.568 
L 290.269091 53.568 
L 293.54843 53.568 
L 296.827769 53.568 
L 300.107107 53.568 
L 303.386446 53.568 
L 306.665785 53.568 
L 309.945124 53.568 
L 313.224463 53.568 
L 316.503802 53.568 
L 319.78314 53.568 
L 323.062479 53.568 
L 326.341818 53.568 
L 329.621157 53.568 
L 332.900496 53.568 
L 336.179835 53.568 
L 339.459174 53.568 
L 342.738512 53.568 
L 346.017851 53.568 
L 349.29719 53.568 
L 352.576529 53.568 
L 355.855868 53.568 
L 359.135207 53.568 
L 362.414545 53.568 
L 365.693884 53.568 
L 368.973223 53.568 
L 372.252562 53.568 
L 375.531901 53.568 
L 378.81124 53.568 
L 382.090579 53.568 
L 385.369917 53.568 
L 388.649256 53.568 
L 391.928595 53.568 
L 395.207934 53.568 
L 398.487273 53.568 
" clip-path="url(#p07f6971251)" style="fill: none; stroke: #ff0000; stroke-width: 1.5; stroke-linecap: square"/>
   </g>
   <g id="patch_3">
    <path d="M 57.6 307.584 
L 57.6 41.472 
" style="fill: none; stroke: #000000; stroke-width: 0.8; stroke-linejoin: miter; stroke-linecap: square"/>
   </g>
   <g id="patch_4">
    <path d="M 414.72 307.584 
L 414.72 41.472 
" style="fill: none; stroke: #000000; stroke-width: 0.8; stroke-linejoin: miter; stroke-linecap: square"/>
   </g>
   <g id="patch_5">
    <path d="M 57.6 307.584 
L 414.72 307.584 
" style="fill: none; stroke: #000000; stroke-width: 0.8; stroke-linejoin: miter; stroke-linecap: square"/>
   </g>
   <g id="patch_6">
    <path d="M 57.6 41.472 
L 414.72 41.472 
" style="fill: none; stroke: #000000; stroke-width: 0.8; stroke-linejoin: miter; stroke-linecap: square"/>
   </g>
   <g id="text_17">
    <!-- Population's average and best fitness -->
    <g transform="translate(123.529687 35.472) scale(0.12 -0.12)">
     <defs>
      <path id="DejaVuSans-50" d="M 1259 4147 
L 1259 2394 
L 2053 2394 
Q 2494 2394 2734 2622 
Q 2975 2850 2975 3272 
Q 2975 3691 2734 3919 
Q 2494 4147 2053 4147 
L 1259 4147 
z
M 628 4666 
L 2053 4666 
Q 2838 4666 3239 4311 
Q 3641 3956 3641 3272 
Q 3641 2581 3239 2228 
Q 2838 1875 2053 1875 
L 1259 1875 
L 1259 0 
L 628 0 
L 628 4666 
z
" transform="scale(0.015625)"/>
      <path id="DejaVuSans-70" d="M 1159 525 
L 1159 -1331 
L 581 -1331 
L 581 3500 
L 1159 3500 
L 1159 2969 
Q 1341 3281 1617 3432 
Q 1894 3584 2278 3584 
Q 2916 3584 3314 3078 
Q 3713 2572 3713 1747 
Q 3713 922 3314 415 
Q 2916 -91 2278 -91 
Q 1894 -91 1617 61 
Q 1341 213 1159 525 
z
M 3116 1747 
Q 3116 2381 2855 2742 
Q 2594 3103 2138 3103 
Q 1681 3103 1420 2742 
Q 1159 2381 1159 1747 
Q 1159 1113 1420 752 
Q 1681 391 2138 391 
Q 2594 391 2855 752 
Q 3116 1113 3116 1747 
z
" transform="scale(0.015625)"/>
      <path id="DejaVuSans-75" d="M 544 1381 
L 544 3500 
L 1119 3500 
L 1119 1403 
Q 1119 906 1312 657 
Q 1506 409 1894 409 
Q 2359 409 2629 706 
Q 2900 1003 2900 1516 
L 2900 3500 
L 3475 3500 
L 3475 0 
L 2900 0 
L 2900 538 
Q 2691 219 2414 64 
Q 2138 -91 1772 -91 
Q 1169 -91 856 284 
Q 544 659 544 1381 
z
M 1991 3584 
L 1991 3584 
z
" transform="scale(0.015625)"/>
      <path id="DejaVuSans-6c" d="M 603 4863 
L 1178 4863 
L 1178 0 
L 603 0 
L 603 4863 
z
" transform="scale(0.015625)"/>
      <path id="DejaVuSans-27" d="M 1147 4666 
L 1147 2931 
L 616 2931 
L 616 4666 
L 1147 4666 
z
" transform="scale(0.015625)"/>
      <path id="DejaVuSans-20" transform="scale(0.015625)"/>
      <path id="DejaVuSans-76" d="M 191 3500 
L 800 3500 
L 1894 563 
L 2988 3500 
L 3597 3500 
L 2284 0 
L 1503 0 
L 191 3500 
z
" transform="scale(0.015625)"/>
      <path id="DejaVuSans-67" d="M 2906 1791 
Q 2906 2416 2648 2759 
Q 2391 3103 1925 3103 
Q 1463 3103 1205 2759 
Q 947 2416 947 1791 
Q 947 1169 1205 825 
Q 1463 481 1925 481 
Q 2391 481 2648 825 
Q 2906 1169 2906 1791 
z
M 3481 434 
Q 3481 -459 3084 -895 
Q 2688 -1331 1869 -1331 
Q 1566 -1331 1297 -1286 
Q 1028 -1241 775 -1147 
L 775 -588 
Q 1028 -725 1275 -790 
Q 1522 -856 1778 -856 
Q 2344 -856 2625 -561 
Q 2906 -266 2906 331 
L 2906 616 
Q 2728 306 2450 153 
Q 2172 0 1784 0 
Q 1141 0 747 490 
Q 353 981 353 1791 
Q 353 2603 747 3093 
Q 1141 3584 1784 3584 
Q 2172 3584 2450 3431 
Q 2728 3278 2906 2969 
L 2906 3500 
L 3481 3500 
L 3481 434 
z
" transform="scale(0.015625)"/>
      <path id="DejaVuSans-64" d="M 2906 2969 
L 2906 4863 
L 3481 4863 
L 3481 0 
L 2906 0 
L 2906 525 
Q 2725 213 2448 61 
Q 2172 -91 1784 -91 
Q 1150 -91 751 415 
Q 353 922 353 1747 
Q 353 2572 751 3078 
Q 1150 3584 1784 3584 
Q 2172 3584 2448 3432 
Q 2725 3281 2906 2969 
z
M 947 1747 
Q 947 1113 1208 752 
Q 1469 391 1925 391 
Q 2381 391 2643 752 
Q 2906 1113 2906 1747 
Q 2906 2381 2643 2742 
Q 2381 3103 1925 3103 
Q 1469 3103 1208 2742 
Q 947 2381 947 1747 
z
" transform="scale(0.015625)"/>
      <path id="DejaVuSans-62" d="M 3116 1747 
Q 3116 2381 2855 2742 
Q 2594 3103 2138 3103 
Q 1681 3103 1420 2742 
Q 1159 2381 1159 1747 
Q 1159 1113 1420 752 
Q 1681 391 2138 391 
Q 2594 391 2855 752 
Q 3116 1113 3116 1747 
z
M 1159 2969 
Q 1341 3281 1617 3432 
Q 1894 3584 2278 3584 
Q 2916 3584 3314 3078 
Q 3713 2572 3713 1747 
Q 3713 922 3314 415 
Q 2916 -91 2278 -91 
Q 1894 -91 1617 61 
Q 1341 213 1159 525 
L 1159 0 
L 581 0 
L 581 4863 
L 1159 4863 
L 1159 2969 
z
" transform="scale(0.015625)"/>
      <path id="DejaVuSans-66" d="M 2375 4863 
L 2375 4384 
L 1825 4384 
Q 1516 4384 1395 4259 
Q 1275 4134 1275 3809 
L 1275 3500 
L 2222 3500 
L 2222 3053 
L 1275 3053 
L 1275 0 
L 697 0 
L 697 3053 
L 147 3053 
L 147 3500 
L 697 3500 
L 697 3744 
Q 697 4328 969 4595 
Q 1241 4863 1831 4863 
L 2375 4863 
z
" transform="scale(0.015625)"/>
     </defs>
     <use xlink:href="#DejaVuSans-50"/>
     <use xlink:href="#DejaVuSans-6f" x="56.677734"/>
     <use xlink:href="#DejaVuSans-70" x="117.859375"/>
     <use xlink:href="#DejaVuSans-75" x="181.335938"/>
     <use xlink:href="#DejaVuSans-6c" x="244.714844"/>
     <use xlink:href="#DejaVuSans-61" x="272.498047"/>
     <use xlink:href="#DejaVuSans-74" x="333.777344"/>
     <use xlink:href="#DejaVuSans-69" x="372.986328"/>
     <use xlink:href="#DejaVuSans-6f" x="400.769531"/>
     <use xlink:href="#DejaVuSans-6e" x="461.951172"/>
     <use xlink:href="#DejaVuSans-27" x="525.330078"/>
     <use xlink:href="#DejaVuSans-73" x="552.820312"/>
     <use xlink:href="#DejaVuSans-20" x="604.919922"/>
     <use xlink:href="#DejaVuSans-61" x="636.707031"/>
     <use xlink:href="#DejaVuSans-76" x="697.986328"/>
     <use xlink:href="#DejaVuSans-65" x="757.166016"/>
     <use xlink:href="#DejaVuSans-72" x="818.689453"/>
     <use xlink:href="#DejaVuSans-61" x="859.802734"/>
     <use xlink:href="#DejaVuSans-67" x="921.082031"/>
     <use xlink:href="#DejaVuSans-65" x="984.558594"/>
     <use xlink:href="#DejaVuSans-20" x="1046.082031"/>
     <use xlink:href="#DejaVuSans-61" x="1077.869141"/>
     <use xlink:href="#DejaVuSans-6e" x="1139.148438"/>
     <use xlink:href="#DejaVuSans-64" x="1202.527344"/>
     <use xlink:href="#DejaVuSans-20" x="1266.003906"/>
     <use xlink:href="#DejaVuSans-62" x="1297.791016"/>
     <use xlink:href="#DejaVuSans-65" x="1361.267578"/>
     <use xlink:href="#DejaVuSans-73" x="1422.791016"/>
     <use xlink:href="#DejaVuSans-74" x="1474.890625"/>
     <use xlink:href="#DejaVuSans-20" x="1514.099609"/>
     <use xlink:href="#DejaVuSans-66" x="1545.886719"/>
     <use xlink:href="#DejaVuSans-69" x="1581.091797"/>
     <use xlink:href="#DejaVuSans-74" x="1608.875"/>
     <use xlink:href="#DejaVuSans-6e" x="1648.083984"/>
     <use xlink:href="#DejaVuSans-65" x="1711.462891"/>
     <use xlink:href="#DejaVuSans-73" x="1772.986328"/>
     <use xlink:href="#DejaVuSans-73" x="1825.085938"/>
    </g>
   </g>
   <g id="legend_1">
    <g id="patch_7">
     <path d="M 64.6 108.1845 
L 137.540625 108.1845 
Q 139.540625 108.1845 139.540625 106.1845 
L 139.540625 48.472 
Q 139.540625 46.472 137.540625 46.472 
L 64.6 46.472 
Q 62.6 46.472 62.6 48.472 
L 62.6 106.1845 
Q 62.6 108.1845 64.6 108.1845 
z
" style="fill: #ffffff; opacity: 0.8; stroke: #cccccc; stroke-linejoin: miter"/>
    </g>
    <g id="line2d_33">
     <path d="M 66.6 54.570438 
L 76.6 54.570438 
L 86.6 54.570438 
" style="fill: none; stroke: #0000ff; stroke-width: 1.5; stroke-linecap: square"/>
    </g>
    <g id="text_18">
     <!-- average -->
     <g transform="translate(94.6 58.070438) scale(0.1 -0.1)">
      <use xlink:href="#DejaVuSans-61"/>
      <use xlink:href="#DejaVuSans-76" x="61.279297"/>
      <use xlink:href="#DejaVuSans-65" x="120.458984"/>
      <use xlink:href="#DejaVuSans-72" x="181.982422"/>
      <use xlink:href="#DejaVuSans-61" x="223.095703"/>
      <use xlink:href="#DejaVuSans-67" x="284.375"/>
      <use xlink:href="#DejaVuSans-65" x="347.851562"/>
     </g>
    </g>
    <g id="line2d_34">
     <path d="M 66.6 69.248563 
L 76.6 69.248563 
L 86.6 69.248563 
" style="fill: none; stroke-dasharray: 9.6,2.4,1.5,2.4; stroke-dashoffset: 0; stroke: #008000; stroke-width: 1.5"/>
    </g>
    <g id="text_19">
     <!-- -1 sd -->
     <g transform="translate(94.6 72.748563) scale(0.1 -0.1)">
      <defs>
       <path id="DejaVuSans-2d" d="M 313 2009 
L 1997 2009 
L 1997 1497 
L 313 1497 
L 313 2009 
z
" transform="scale(0.015625)"/>
      </defs>
      <use xlink:href="#DejaVuSans-2d"/>
      <use xlink:href="#DejaVuSans-31" x="36.083984"/>
      <use xlink:href="#DejaVuSans-20" x="99.707031"/>
      <use xlink:href="#DejaVuSans-73" x="131.494141"/>
      <use xlink:href="#DejaVuSans-64" x="183.59375"/>
     </g>
    </g>
    <g id="line2d_35">
     <path d="M 66.6 83.926688 
L 76.6 83.926688 
L 86.6 83.926688 
" style="fill: none; stroke-dasharray: 9.6,2.4,1.5,2.4; stroke-dashoffset: 0; stroke: #008000; stroke-width: 1.5"/>
    </g>
    <g id="text_20">
     <!-- +1 sd -->
     <g transform="translate(94.6 87.426688) scale(0.1 -0.1)">
      <defs>
       <path id="DejaVuSans-2b" d="M 2944 4013 
L 2944 2272 
L 4684 2272 
L 4684 1741 
L 2944 1741 
L 2944 0 
L 2419 0 
L 2419 1741 
L 678 1741 
L 678 2272 
L 2419 2272 
L 2419 4013 
L 2944 4013 
z
" transform="scale(0.015625)"/>
      </defs>
      <use xlink:href="#DejaVuSans-2b"/>
      <use xlink:href="#DejaVuSans-31" x="83.789062"/>
      <use xlink:href="#DejaVuSans-20" x="147.412109"/>
      <use xlink:href="#DejaVuSans-73" x="179.199219"/>
      <use xlink:href="#DejaVuSans-64" x="231.298828"/>
     </g>
    </g>
    <g id="line2d_36">
     <path d="M 66.6 98.604813 
L 76.6 98.604813 
L 86.6 98.604813 
" style="fill: none; stroke: #ff0000; stroke-width: 1.5; stroke-linecap: square"/>
    </g>
    <g id="text_21">
     <!-- best -->
     <g transform="translate(94.6 102.104813) scale(0.1 -0.1)">
      <use xlink:href="#DejaVuSans-62"/>
      <use xlink:href="#DejaVuSans-65" x="63.476562"/>
      <use xlink:href="#DejaVuSans-73" x="125"/>
      <use xlink:href="#DejaVuSans-74" x="177.099609"/>
     </g>
    </g>
   </g>
  </g>
 </g>
 <defs>
  <clipPath id="p07f6971251">
   <rect x="57.6" y="41.472" width="357.12" height="266.112"/>
  </clipPath>
 </defs>
</svg>
